<svg width="800" height="206" viewBox="0 0 800 206" fill="none" xmlns="http://www.w3.org/2000/svg">
<path d="M344.294 172.481C323.714 172.481 306.814 165.368 293.594 151.142C280.511 136.779 273.969 118.587 273.969 96.564C273.969 74.4045 280.374 56.0751 293.185 41.5757C305.997 27.0764 322.965 19.8267 344.089 19.8267C361.534 19.8267 375.504 24.4774 385.998 33.7789C396.629 42.9436 402.762 54.7756 404.397 69.275H374.959C373.596 61.7518 370.189 55.8015 364.737 51.4244C359.422 47.0472 352.539 44.8586 344.089 44.8586C331.142 44.8586 321.261 49.6461 314.446 59.2212C307.632 68.7963 304.225 81.2439 304.225 96.564C304.225 111.747 307.836 124.126 315.06 133.702C322.419 143.277 332.164 148.064 344.294 148.064C352.88 148.064 360.035 145.739 365.759 141.088C371.483 136.3 374.822 130.008 375.776 122.211H404.806C403.988 136.027 398.605 147.585 388.656 156.887C377.616 167.283 362.829 172.481 344.294 172.481Z" fill="white"/>
<path d="M505.893 156.682C495.671 167.214 482.52 172.481 466.438 172.481C450.356 172.481 437.204 167.214 426.982 156.682C416.76 146.012 411.65 132.744 411.65 116.877C411.65 101.01 416.76 87.8096 426.982 77.2771C437.204 66.6077 450.356 61.273 466.438 61.273C482.52 61.273 495.671 66.6077 505.893 77.2771C516.115 87.8096 521.226 101.01 521.226 116.877C521.226 132.744 516.115 146.012 505.893 156.682ZM466.438 151.142C474.751 151.142 481.225 148.064 485.859 141.909C490.629 135.617 493.014 127.273 493.014 116.877C493.014 106.481 490.629 98.137 485.859 91.8448C481.225 85.5526 474.751 82.4065 466.438 82.4065C457.988 82.4065 451.446 85.5526 446.812 91.8448C442.178 98.0002 439.861 106.344 439.861 116.877C439.861 127.273 442.178 135.617 446.812 141.909C451.446 148.064 457.988 151.142 466.438 151.142Z" fill="white"/>
<path d="M598.137 169.403C596.774 167.625 595.684 163.726 594.866 157.708H594.457C591.459 162.222 587.643 165.71 583.009 168.172C578.375 170.634 571.902 171.865 563.588 171.865C552.549 171.865 543.69 169.061 537.012 163.453C530.334 157.844 526.994 149.911 526.994 139.652C526.994 128.982 530.674 121.186 538.034 116.261C545.393 111.2 555.751 107.712 569.108 105.797C578.92 104.429 585.599 103.061 589.142 101.693C592.686 100.189 594.457 97.5899 594.457 93.8966C594.457 90.0666 592.958 87.0573 589.96 84.8687C586.961 82.5433 582.6 81.3807 576.876 81.3807C564.201 81.3807 557.455 86.305 556.637 96.1536H531.901C532.31 86.1682 536.33 77.8926 543.962 71.3268C551.595 64.7611 562.634 61.4782 577.081 61.4782C606.519 61.4782 621.238 74.4045 621.238 100.257V153.809C621.238 161.743 622.465 166.599 624.918 168.377V169.403H598.137ZM570.334 152.373C577.966 152.373 583.963 150.39 588.324 146.423C592.822 142.456 595.071 137.737 595.071 132.265V116.466C592.072 118.245 585.599 120.296 575.649 122.622C567.745 124.4 562.157 126.452 558.886 128.777C555.615 130.966 553.98 134.385 553.98 139.036C553.98 147.927 559.431 152.373 570.334 152.373Z" fill="white"/>
<path d="M664.059 64.1455V78.5081H664.672C671.895 67.0181 682.253 61.273 695.746 61.273C706.513 61.273 715.235 64.9663 721.913 72.3527C728.591 79.6024 731.93 89.0407 731.93 100.668V169.403H704.128V104.771C704.128 99.0261 702.492 94.3754 699.221 90.8189C696.087 87.2625 691.657 85.4843 685.933 85.4843C679.8 85.4843 674.689 87.7412 670.601 92.2552C666.648 96.7692 664.672 102.583 664.672 109.695V169.403H636.869V64.1455H664.059Z" fill="white"/>
<path d="M770.308 23.6442H762.54V43.6864H757.291V23.6442H749.629V19.8267H770.308V23.6442ZM780.117 19.8267L786.638 37.0587L793.134 19.8267H800V43.6864H794.698V37.0587L795.281 25.7651L788.415 43.6864H784.836L777.996 25.7916L778.526 37.0587V43.6864H773.303V19.8267H780.117Z" fill="white"/>
<path d="M112.234 0L124.896 12.6618L93.2416 44.3165L80.5797 31.6546L112.234 0Z" fill="url(#paint0_linear_906_2)"/>
<path d="M162.331 18.512L166.965 35.8084L123.724 47.3948L119.09 30.0984L162.331 18.512Z" fill="url(#paint1_linear_906_2)"/>
<path d="M196.46 59.592L191.825 76.8884L148.584 65.302L153.219 48.0056L196.46 59.592Z" fill="url(#paint2_linear_906_2)"/>
<path d="M205.477 112.233L192.815 124.895L161.16 93.2401L173.822 80.5783L205.477 112.233Z" fill="url(#paint3_linear_906_2)"/>
<path d="M186.964 162.329L169.668 166.964L158.082 123.723L175.378 119.088L186.964 162.329Z" fill="url(#paint4_linear_906_2)"/>
<path d="M145.885 196.458L128.588 191.824L140.175 148.583L157.471 153.217L145.885 196.458Z" fill="url(#paint5_linear_906_2)"/>
<path d="M112.234 161.159L124.896 173.821L93.2416 205.475L80.5797 192.814L112.234 161.159Z" fill="url(#paint6_linear_906_2)"/>
<path d="M81.7515 158.08L86.386 175.377L43.145 186.963L38.5105 169.667L81.7515 158.08Z" fill="url(#paint7_linear_906_2)"/>
<path d="M56.8917 140.173L52.2571 157.469L9.01614 145.883L13.6507 128.586L56.8917 140.173Z" fill="url(#paint8_linear_906_2)"/>
<path d="M44.3165 112.234L31.6546 124.896L0 93.2412L12.6618 80.5794L44.3165 112.234Z" fill="url(#paint9_linear_906_2)"/>
<path d="M47.3952 81.7511L30.0988 86.3857L18.5124 43.1447L35.8088 38.5101L47.3952 81.7511Z" fill="url(#paint10_linear_906_2)"/>
<path d="M65.3029 56.8913L48.0065 52.2568L59.5929 9.01578L76.8893 13.6503L65.3029 56.8913Z" fill="url(#paint11_linear_906_2)"/>
<defs>
<linearGradient id="paint0_linear_906_2" x1="6.7741e-08" y1="102.963" x2="279.79" y2="102.963" gradientUnits="userSpaceOnUse">
<stop stop-color="white"/>
<stop offset="1" stop-color="white" stop-opacity="0"/>
</linearGradient>
<linearGradient id="paint1_linear_906_2" x1="6.7741e-08" y1="102.963" x2="279.79" y2="102.963" gradientUnits="userSpaceOnUse">
<stop stop-color="white"/>
<stop offset="1" stop-color="white" stop-opacity="0"/>
</linearGradient>
<linearGradient id="paint2_linear_906_2" x1="6.7741e-08" y1="102.963" x2="279.79" y2="102.963" gradientUnits="userSpaceOnUse">
<stop stop-color="white"/>
<stop offset="1" stop-color="white" stop-opacity="0"/>
</linearGradient>
<linearGradient id="paint3_linear_906_2" x1="6.7741e-08" y1="102.963" x2="279.79" y2="102.963" gradientUnits="userSpaceOnUse">
<stop stop-color="white"/>
<stop offset="1" stop-color="white" stop-opacity="0"/>
</linearGradient>
<linearGradient id="paint4_linear_906_2" x1="6.7741e-08" y1="102.963" x2="279.79" y2="102.963" gradientUnits="userSpaceOnUse">
<stop stop-color="white"/>
<stop offset="1" stop-color="white" stop-opacity="0"/>
</linearGradient>
<linearGradient id="paint5_linear_906_2" x1="6.7741e-08" y1="102.963" x2="279.79" y2="102.963" gradientUnits="userSpaceOnUse">
<stop stop-color="white"/>
<stop offset="1" stop-color="white" stop-opacity="0"/>
</linearGradient>
<linearGradient id="paint6_linear_906_2" x1="6.7741e-08" y1="102.963" x2="279.79" y2="102.963" gradientUnits="userSpaceOnUse">
<stop stop-color="white"/>
<stop offset="1" stop-color="white" stop-opacity="0"/>
</linearGradient>
<linearGradient id="paint7_linear_906_2" x1="6.7741e-08" y1="102.963" x2="279.79" y2="102.963" gradientUnits="userSpaceOnUse">
<stop stop-color="white"/>
<stop offset="1" stop-color="white" stop-opacity="0"/>
</linearGradient>
<linearGradient id="paint8_linear_906_2" x1="6.7741e-08" y1="102.963" x2="279.79" y2="102.963" gradientUnits="userSpaceOnUse">
<stop stop-color="white"/>
<stop offset="1" stop-color="white" stop-opacity="0"/>
</linearGradient>
<linearGradient id="paint9_linear_906_2" x1="6.7741e-08" y1="102.963" x2="279.79" y2="102.963" gradientUnits="userSpaceOnUse">
<stop stop-color="white"/>
<stop offset="1" stop-color="white" stop-opacity="0"/>
</linearGradient>
<linearGradient id="paint10_linear_906_2" x1="6.7741e-08" y1="102.963" x2="279.79" y2="102.963" gradientUnits="userSpaceOnUse">
<stop stop-color="white"/>
<stop offset="1" stop-color="white" stop-opacity="0"/>
</linearGradient>
<linearGradient id="paint11_linear_906_2" x1="6.7741e-08" y1="102.963" x2="279.79" y2="102.963" gradientUnits="userSpaceOnUse">
<stop stop-color="white"/>
<stop offset="1" stop-color="white" stop-opacity="0"/>
</linearGradient>
</defs>
</svg>
