<svg  viewBox="0 0 132 30" fill="none" xmlns="http://www.w3.org/2000/svg">
<path d="M29.4141 28.3372C28.0228 29.0851 26.5005 29.6207 24.8903 29.9006H8.71567C8.45126 29.7777 8.1911 29.6473 7.93529 29.5098H12.0446C11.7799 29.3867 11.5192 29.2566 11.2631 29.1189H16.8733C16.2876 28.8929 15.7194 28.6316 15.1717 28.3372H29.4141Z" fill="white"/>
<path d="M33.7668 24.8195C33.2921 25.3771 32.7776 25.8997 32.2274 26.3829H3.92652C3.80951 26.2547 3.6948 26.1243 3.58223 25.992H7.25453C7.1375 25.8638 7.02265 25.7335 6.91005 25.6012H11.5332C11.2861 25.349 11.0476 25.0885 10.8186 24.8195H33.7668Z" fill="white"/>
<path d="M17.9896 21.3017C19.2976 22.24 20.901 22.7927 22.6335 22.7927C24.366 22.7926 25.9694 22.24 27.2774 21.3017H36.0053C35.7597 21.8407 35.4832 22.3625 35.1781 22.8652H1.52889C1.46542 22.7359 1.4038 22.6056 1.34396 22.4743H4.85671C4.7933 22.345 4.73162 22.2148 4.67178 22.0835H8.96454C8.82927 21.8272 8.70104 21.5665 8.58036 21.3017H17.9896Z" fill="white"/>
<path d="M15.228 17.784C15.4505 18.3388 15.7337 18.8625 16.0691 19.3475H0.316809C0.289557 19.2178 0.263979 19.0875 0.240087 18.9566H3.64463C3.61739 18.8269 3.5918 18.6966 3.56791 18.5657H7.64062C7.57922 18.3077 7.5245 18.047 7.47649 17.784H15.228Z" fill="white"/>
<path d="M37.109 17.784C37.012 18.3154 36.8871 18.8371 36.7359 19.3475H29.1979C29.5333 18.8625 29.8165 18.3388 30.039 17.784H37.109Z" fill="white"/>
<path d="M14.6764 14.2663C14.6641 14.448 14.6572 14.6315 14.6572 14.8163C14.6572 15.1596 14.679 15.4979 14.7211 15.8297H0C0.00344872 15.699 0.00850922 15.5687 0.0152679 15.4389H3.32763C3.33112 15.3082 3.33633 15.1779 3.34309 15.048H7.23087C7.23111 14.7858 7.2382 14.5252 7.25167 14.2663H14.6764Z" fill="white"/>
<path d="M15.7715 10.7486C15.4805 11.2384 15.2405 11.7619 15.0587 12.312H0.51052C0.545755 12.181 0.582558 12.0507 0.621212 11.9212H3.83835C3.87352 11.7902 3.91038 11.6599 3.94904 11.5303H7.6473C7.7105 11.267 7.78071 11.0063 7.85761 10.7486H15.7715Z" fill="white"/>
<path d="M36.7276 10.7486C36.8799 11.2589 37.006 11.7806 37.104 12.312H30.2083C30.0265 11.7619 29.7863 11.2384 29.4953 10.7486H36.7276Z" fill="white"/>
<path d="M20.8723 7.03544C19.6681 7.30685 18.5673 7.85078 17.6375 8.59887H2.07071C2.14826 8.46727 2.22787 8.33702 2.30927 8.20801H5.39872C5.47625 8.07644 5.55571 7.94613 5.63709 7.81716H9.08496C9.23091 7.55164 9.38447 7.2909 9.54567 7.03544H20.8723Z" fill="white"/>
<path d="M35.04 7.03544C35.3567 7.53736 35.6446 8.05927 35.9013 8.59887H27.6295C26.6997 7.85074 25.5988 7.30685 24.3944 7.03544H35.04Z" fill="white"/>
<path d="M31.9675 3.51772C32.5406 3.99854 33.0774 4.52126 33.5731 5.08115H4.93382C5.08053 4.94792 5.23003 4.81773 5.38193 4.69029H8.26202C8.40869 4.55716 8.55792 4.42681 8.70975 4.29944H11.7565C12.0336 4.02813 12.321 3.76718 12.6183 3.51772H31.9675Z" fill="white"/>
<path d="M22.2928 0C24.6955 0 26.9667 0.562779 28.9821 1.56343H11.6332C12.7026 1.31488 13.8157 1.18039 14.9591 1.17315C15.7498 0.989218 16.5643 0.867505 17.3974 0.813587C18.9322 0.286363 20.5791 1.21929e-06 22.2928 0Z" fill="white"/>
<path d="M59.3937 27.5374C55.9829 27.5374 53.182 26.3585 50.991 24.0008C48.8225 21.6204 47.7383 18.6052 47.7383 14.9552C47.7383 11.2826 48.7999 8.24473 50.9232 5.84165C53.0465 3.43857 55.8587 2.23703 59.3598 2.23703C62.2511 2.23703 64.5664 3.00783 66.3056 4.54943C68.0675 6.06836 69.084 8.02936 69.355 10.4324H64.476C64.2501 9.18556 63.6854 8.19939 62.7819 7.47393C61.901 6.74847 60.7603 6.38574 59.3598 6.38574C57.214 6.38574 55.5763 7.17921 54.4469 8.76615C53.3175 10.3531 52.7528 12.4161 52.7528 14.9552C52.7528 17.4716 53.3514 19.5233 54.5486 21.1103C55.7683 22.6972 57.3834 23.4907 59.3937 23.4907C60.8167 23.4907 62.0026 23.1053 62.9513 22.3345C63.9 21.541 64.4534 20.4982 64.6115 19.2059H69.4228C69.2873 21.4957 68.395 23.4113 66.7461 24.9529C64.9165 26.6759 62.4657 27.5374 59.3937 27.5374Z" fill="white"/>
<path d="M86.1767 24.9189C84.4826 26.6646 82.3028 27.5374 79.6374 27.5374C76.972 27.5374 74.7923 26.6646 73.0982 24.9189C71.4041 23.1506 70.557 20.9516 70.557 18.3218C70.557 15.692 71.4041 13.5043 73.0982 11.7587C74.7923 9.99036 76.972 9.10621 79.6374 9.10621C82.3028 9.10621 84.4826 9.99036 86.1767 11.7587C87.8708 13.5043 88.7178 15.692 88.7178 18.3218C88.7178 20.9516 87.8708 23.1506 86.1767 24.9189ZM79.6374 24.0008C81.0153 24.0008 82.0882 23.4907 82.8562 22.4705C83.6468 21.4277 84.0421 20.0448 84.0421 18.3218C84.0421 16.5988 83.6468 15.2159 82.8562 14.1731C82.0882 13.1302 81.0153 12.6088 79.6374 12.6088C78.237 12.6088 77.1527 13.1302 76.3847 14.1731C75.6168 15.1933 75.2328 16.5762 75.2328 18.3218C75.2328 20.0448 75.6168 21.4277 76.3847 22.4705C77.1527 23.4907 78.237 24.0008 79.6374 24.0008Z" fill="white"/>
<path d="M101.465 27.0273C101.239 26.7326 101.058 26.0865 100.923 25.089H100.855C100.358 25.8371 99.7256 26.4152 98.9576 26.8233C98.1896 27.2313 97.1167 27.4354 95.7388 27.4354C93.9092 27.4354 92.4409 26.9706 91.3341 26.0411C90.2273 25.1116 89.6739 23.7967 89.6739 22.0964C89.6739 20.3281 90.2838 19.0359 91.5035 18.2198C92.7233 17.381 94.44 16.8029 96.6536 16.4855C98.28 16.2588 99.3868 16.0321 99.9741 15.8054C100.561 15.556 100.855 15.1252 100.855 14.5131C100.855 13.8784 100.607 13.3796 100.11 13.0169C99.6126 12.6315 98.8898 12.4388 97.9411 12.4388C95.8404 12.4388 94.7223 13.2549 94.5868 14.8872H90.4871C90.5549 13.2323 91.2212 11.8607 92.4861 10.7725C93.7511 9.68431 95.5807 9.14022 97.975 9.14022C102.854 9.14022 105.294 11.2826 105.294 15.5673V24.4428C105.294 25.7577 105.497 26.5625 105.903 26.8573V27.0273H101.465ZM96.8569 24.2048C98.1218 24.2048 99.1157 23.8761 99.8385 23.2186C100.584 22.5612 100.957 21.7791 100.957 20.8722V18.2538C100.46 18.5485 99.3868 18.8886 97.7378 19.274C96.4277 19.5687 95.5016 19.9087 94.9595 20.2941C94.4174 20.6569 94.1463 21.2236 94.1463 21.9944C94.1463 23.468 95.0499 24.2048 96.8569 24.2048Z" fill="white"/>
<path d="M112.39 9.58229V11.9627H112.492C113.689 10.0584 115.406 9.10621 117.642 9.10621C119.427 9.10621 120.872 9.71832 121.979 10.9425C123.086 12.1441 123.639 13.7083 123.639 15.6353V27.0273H119.031V16.3155C119.031 15.3633 118.76 14.5925 118.218 14.0031C117.699 13.4136 116.965 13.1189 116.016 13.1189C114.999 13.1189 114.152 13.493 113.475 14.2411C112.82 14.9892 112.492 15.9527 112.492 17.1316V27.0273H107.884V9.58229H112.39Z" fill="white"/>
<path d="M127.08 2.86974H125.792V6.19146H124.922V2.86974H123.652V2.23703H127.08V2.86974ZM128.705 2.23703L129.786 5.09301L130.863 2.23703H132.001V6.19146H131.122V5.09301L131.218 3.22124L130.08 6.19146H129.487L128.354 3.22564L128.442 5.09301V6.19146H127.576V2.23703H128.705Z" fill="white"/>
</svg>
