<svg width="1019" height="827" viewBox="0 0 1019 827" fill="none" xmlns="http://www.w3.org/2000/svg">
<mask id="path-1-inside-1_1175_584" fill="white">
<path d="M78.587 189.965L82.9488 187.348L83.9753 186.301L84.5805 184.43L84.1592 182.715L83.1143 181.126L81.1226 178.986L80.7625 178.772L80.473 178.481L79.9904 177.563L79.7177 176.712L79.2259 171.791L79.6119 170.372L80.5511 169.131L81.9989 167.63L83.4391 164.75L83.0438 161.783L80.928 155.433L80.9724 151.668L83.2629 140.272L82.4203 118.656L82.7711 117.739L101.343 103.739L106.837 98.4612L120.398 77.0764L123.077 58.4131L123.365 56.4122L123.542 35.549L129.036 35.3716L131.59 34.882L133.96 33.7041L147.318 20.8723L151.294 18.033L155.893 16.208L166.008 13.7221L182.908 9.56877L185.629 9.27505L187.578 10.1547L189.492 11.9904L191.422 12.8547L196.356 13.153L204.949 11.5942L217.114 12.1357L220.037 11.5758L221.012 11.1582L223.619 9.28882L224.796 7.89213L226.218 4.68112L227.192 3.38387L229.553 2.18759L242.096 0L244.862 0.599674L268.898 10.1761L292.935 19.7479L293.708 20.1854L294.242 20.6566L294.805 20.9044L295.692 20.6658L300.599 17.9L302.231 17.5573L306.848 18.5639L308.374 18.8974L314.045 22.1757L325.964 33.5343L339.828 48.7785L346.735 61.5216L348.841 65.4072L353.871 71.2219L356.952 74.0933L359.708 76.1509L362.298 77.1468L365.132 77.4573L371.452 77.4252L372.981 77.1697L373.471 77.0871L375.288 76.1907L379.309 72.6355L384.47 66.5286L386.365 66.1645L395.222 67.7952L398.268 67.8136L400.928 66.9523L431.806 48.2584L434.703 46.9658L437.617 46.6782L459.147 49.7515L461.491 50.6541L462.466 51.4037L464.457 53.3143L466.801 54.7722L469.671 57.0363L470.909 57.6253L473.428 58.3075L473.517 58.3504L474.63 58.8797L475.753 59.8679L477.869 62.415L486.348 70.1832L486.971 70.5794L487.823 70.9099L488.148 70.942L488.499 70.6988L489.464 70.2108L490.439 69.8956L492.545 69.6386L493.555 69.6478L495.845 70.1389L497.872 71.1225L501.585 73.9251L503.244 75.7562L505.684 79.8117L507.141 81.5908L510.258 83.3975L532.631 90.0413L535.609 90.3916L560.366 93.2951L563.518 93.2906L568.047 92.0071L569.583 91.903L587.62 94.0248L589.419 93.8902L590.008 93.6424L590.93 93.0335L591.904 92.1861L592.493 91.49L607.072 74.205L609.915 71.4866L611.547 70.4326L612.451 70.1129L612.882 70.1756L613.223 70.1129L613.899 69.4092L614.294 68.5372L614.619 66.4093L614.979 65.5021L616.48 64.0427L632.587 54.9742L636.133 53.4841L677.436 44.5778L679.737 44.0806L687.917 43.4182L703.347 45.231L744.706 45.0107L770.379 51.5444L779.761 55.3826L791.575 62.6384L795.49 65.7499L797.158 66.5852L802.153 67.7983L804.97 67.5597L806.173 67.3531L807.955 66.1232L809.367 65.8325L813.651 67.3485L814.616 67.884L814.941 68.4668L814.976 68.9487L815.125 69.2776L815.801 69.3984L816.116 69.1919L816.493 68.7422L817.02 68.3245L817.828 68.2113L818.67 68.6886L819.301 69.4535L819.925 69.8926L820.732 69.4L822.119 69.8069L825.105 69.9125L827.446 69.9951L829.395 70.3102L831.019 70.8839L832.405 71.1669L833.59 70.5886L833.976 69.5591L834.705 64.9162L835.091 64.5995L837.014 64.2492L837.654 64.0519L838.339 63.2793L838.796 62.3508L839.33 60.4263L837.979 59.9199L838.558 58.6257L839.664 57.0302L839.91 55.6167L843.007 52.6764L843.446 52.372L843.735 52.8738L844.34 52.6749L844.929 52.245L845.491 51.6515L845.658 51.1359L845.764 49.7239L846.668 50.42L847.395 51.1849L848.238 51.7953L849.528 52.0477L850.274 51.5933L850.862 49.5847L851.854 49.1258L853.776 48.6868L855.172 47.5945L857.358 44.9051L857.928 43.461L858.042 43.4213L858.279 43.0725L858.779 43.4534L859.261 44.0531L859.445 44.3682L860.639 44.2688L860.604 43.9307L860.069 43.2836L859.735 42.2571L859.972 41.9435L861.104 41.5381L861.474 41.3362L861.693 41.278L862.43 41.3867L862.684 41.3377L862.745 41.0991L862.623 40.3938L862.684 40.146L865.045 37.4995L866.16 36.5755L865.626 35.8749L865.091 35.3471L864.493 34.9937L863.792 34.7933V34.1447L865.108 34.5118L866.196 35.0396L866.968 34.9677L867.319 33.5465L869.689 34.0789L872.033 33.6276L879.669 29.7817L881.846 28.9801L884.19 28.7843V29.3274L883.724 30.1749L884.68 30.5313L886.278 30.4472L887.674 29.976L887.7 30.282L887.674 31.2213L888.307 30.5971L888.938 29.1392L889.411 28.7828L890.236 28.945L890.419 29.641L890.236 30.5206L889.937 31.2213L892.211 30.1917L894.501 29.7634L896.555 29.0092L898.109 26.9991L896.906 26.8415L896.73 26.4178L897.521 25.2123L897.89 25.0654L898.487 25.1083L899.031 24.9798L899.269 24.2898L899.146 23.7957L898.716 23.1777L898.742 22.8258L899.198 21.9493L899.787 21.1584L903.174 17.9627L904.464 17.0494L904.42 15.5502L905.201 14.9276L907.665 14.5084L907.755 14.4931L928.758 15.3926L948.188 42.6977L967.618 69.9675L972.394 93.1284L977.168 116.265L977.283 122.974L977.411 123.392L977.853 124.824L977.827 126.488L977.318 129.144L977.379 130.158L978.151 131.477L979.274 132.164L980.583 132.442L998.041 132.976L1003.47 134.309L1005.79 135.546L1006.06 136.43L1005.62 137.709L1005.79 138.512L1006.4 139.123L1008.92 141.024L1009.85 141.424V142.069L1009.52 142.199L1008.69 142.661L1010.35 143.862L1012.07 144.777L1013.41 145.894L1013.96 147.696L1014.44 148.095L1015.55 147.7L1016.73 147.082L1017.44 146.808L1018.45 147.347L1018.86 148.171L1019 149.095L1017.36 150.772L1017.15 151.315L1016.73 151.835L1016.22 152.843L1014.75 159.063L1014.94 159.974L1013.43 160.977L1013.59 162.64L1015.2 166.38L1015.35 167.326L1015.36 167.944L1015.05 170.85L1014.08 173.587L1012.27 182.408L1011.64 183.863L1008.52 187.998L1008.12 188.758L1008.25 189.514L1009.02 190.56L1009.36 190.69L1010.81 190.672L1011.44 191.056L1011.79 191.616L1012.09 192.234L1012.54 192.81L1013.92 194.21L1014.87 195.686L1015.36 197.426L1015.4 199.618L1015.08 201.425L1014.43 203.571L1013.55 205.644L1012.53 207.227L1011.07 208.013L1006.68 209.613L1004.9 210.698L1001.78 213.505L1000 214.558L994.972 216.139L993.374 217.037L985.809 224.056L985.142 224.333L982.852 224.61L981.816 225.055L979.481 227.49L977.963 228.606L976.155 229.548L974.268 230.033L972.512 229.774L966.561 227.23L963.217 226.26L960.601 226.27L957.337 228.91L954.142 232.169L951.334 235.757L949.298 239.381L947.841 242.817L946.823 244.159L943.594 246.039L942.224 247.215L941.285 248.699L940.908 250.471L941.47 253.749L940.86 255.114L940.399 256.145L925.271 277.854L922.937 282.823L919.75 293.612L916.853 309.884L914.957 315.237L914.931 316.357L915.51 318.112L915.651 319.11L915.468 320.261L914.116 323.167L913.125 324.454L911.317 325.84L910.53 326.307L909.316 327.026L907.737 327.72L901.075 328.448L898.241 329.54L896.732 332.476L896.758 334.196L897.775 337.01L898.109 338.664L897.758 340.706L895.757 343.867L895.108 345.612L895.249 347.558L896.117 348.937L898.584 351.51L899.514 353.446L899.302 354.825L898.504 356.241L897.678 358.3L896.581 364.1L896.16 369.671L893.782 375.77L888.253 377.979L881.573 379.012L875.693 381.585L874.552 382.489L872.094 385.668L871.155 386.612L870.453 387.095L865.468 389.467L864.906 389.877L864.308 391.438L864.711 391.723L867.126 392.102L867.951 393.842L868.636 396.418L868.557 399.819L868.232 401.405L867.705 402.886L863.781 409.955L862.079 414.044L861.982 417.512L862.597 420.642L860.683 436.819L859.735 440.5L857.901 443.036L856.769 443.52L855.715 443.501L854.634 443.306L853.423 443.257L852.457 443.732L851.843 444.741L851.097 447.165L849.851 449.927L848.342 451.589L839.645 456.189L838.336 456.505L837.081 456.261L834.343 455.001L833.237 454.684L831.693 454.863L830.631 455.417L829.648 456.11L828.304 456.694L827.127 456.806L825.915 456.61L823.579 455.859L824.273 457.1L826.265 461.961L826.502 463.177L826.554 465.552L825.817 466.341L823.263 468.122L822.623 468.997L822.079 470.035L821.403 471.021L820.394 471.744L818.603 471.997L815.338 471.444L813.486 472.217L811.537 474.998L810.878 478.696L811.089 482.595L812.441 489.516L812.361 491.22L812.104 491.951L811.711 493.062L808.244 498.006L807.762 500.086L807.771 503.412L808.237 506.7L808.825 508.802L809.053 510.218L808.571 511.462L805.358 514.829L796.924 526.591L793.869 532.16L793.29 533.916L793.026 535.799L793.167 537.603L794.379 542.62L794.045 544.363L792.983 545.336L791.649 546.264L789.384 549.65L784.067 554.856L779.072 559.743L773.806 567.599L772.086 569.22L770.567 570.365L769.892 571.125L770.383 571.624L772.403 572.008L773.596 573.023L777.819 579.15L781.128 582.763L782.18 584.905L781.408 586.843L780.592 587.178L779.872 586.975L779.109 586.622L778.16 586.533L777.002 586.891L776.028 587.478L772.419 590.76L771.156 591.576L770.91 592.344L770.762 593.166L770.27 593.837L769.691 594.046L768.366 594.099L767.417 594.324L766.549 594.235L766.146 594.341L765.802 594.743L765.495 595.86L765.179 596.305L760.264 599.409L755.041 604.211L753.504 606.379L753.031 608.667L753.584 609.945L755.453 612.059L755.865 613.591L755.646 615.908L755.093 618.179L752.636 623.933L750.626 626.732L748.317 628.025L744.964 628.359L742.726 630.174L741.453 633.061L740.935 636.598L740.4 638.545L738.741 640.095L736.564 641.173L734.467 641.672L733.537 641.619L731.694 641.164L730.764 641.08L730.448 641.265L729.544 642.075L729.035 642.295L728.421 642.206L727.473 641.605L727.016 641.455L724.513 641.718L719.256 642.269L716.973 641.952L715.578 640.663L713.909 636.598L712.478 630.006L712.205 626.674L712.346 623.284L712.083 619.216L710.45 615.785L707.552 613.504L699.636 612.053L696.924 609.334L695.222 605.603L694.441 601.714L693.054 598.306L690.272 596.417L683.293 593.785L677.352 590.628L675.114 589.886L673.577 588.664L673.12 584.46L671.548 582.447L670.32 584.853L669.266 587.957L668.545 591.171L668.044 597.714L667.684 597.997L667.202 598.112L666.667 598.514L665.622 599.918L664.928 601.075L664.577 602.412L664.525 604.332L642.653 604.645L640.309 603.948L638.527 602.557L637.64 600.893L636.421 594.607L635.727 593.221L634.542 592.97L632.551 594.105L611.759 611.76L609.767 612.599L608.117 612.114L606.467 611.305L604.447 611.159L602.859 612.955L596.418 633.395L596.337 633.65L595.275 634.493L592.241 634.511L591.21 634.517L588.691 635.027L587.427 636.09L585.443 639.856L584.1 641.173L582.37 642.039L578.972 643.303L578.463 643.493L575.961 645.056L573.389 650.032L571.019 651.467L569.677 651.547L568.606 651.454L567.605 651.555L566.438 652.195L565.28 653.516L562.857 658.641L560.689 661.682L549.042 671.085L541.204 679.244V679.257L539.387 681.89L538.316 683.037L536.956 683.743L536.499 684.322L536.315 686.75L536.007 687.862L534.506 688.047L532.654 687.38L530.828 687.12L529.38 688.514L528.238 689.963L525.237 691.976L524.333 693.379L524.491 695.107L525.404 696.46L526.15 697.947L525.773 700.087L524.281 701.916L522.779 703.029L522.13 704.252L523.245 706.408L524.957 708.068L526.852 709.536L528.45 711.214L529.318 713.486L528.941 715.542L527.651 717.205L526.053 718.736L524.78 720.393L524.253 722.238L524.376 723.904L524.675 725.55L524.719 727.347L524.157 729.254L522.331 732.856L521.787 734.915L521.883 736.04L522.585 738.097L522.672 739.004L520.399 750.573L519.784 751.671L518.897 752.076L517.897 752.251L516.948 752.682L516.096 753.591L514.446 756.116L513.919 757.253L512.665 760.967L511.874 762.649L510.61 764.417V764.431L507.275 769.709L506.757 771.248L504.439 772.961L503.693 774.264L503.965 776.076L504.22 777.252L504.535 778.473L503.087 779.882L503.008 779.883L503.042 779.866L502.862 779.464L502.289 779.066L501.522 778.883L500.837 779.212L499.945 779.957L499.185 780.829L498.854 781.5L498.689 782.248L497.935 783.882L497.707 784.748L497.776 785.589L498.329 786.818L498.287 787.599L497.541 788.936L496.567 789.348L495.427 789.172L494.162 788.756L493.782 788.86L492.959 788.932L492.378 788.699L492.744 787.888L493.104 787.327L493.506 786.427L493.685 785.589L493.325 785.222L492.565 785.416L490.92 786.241L489.813 786.435L487.298 785.493L487.146 783.152L487.983 780.123L488.376 777.142H487.851L487.284 780.044L485.41 781.54L482.985 781.408L480.774 779.407L481.05 779.082L481.41 778.251L480.747 778.084L479.046 777.142L479.434 775.991L478.735 775.043L476.434 773.311L474.402 772.176L474.306 772.1L473.822 770.694L472.869 768.861L472.26 768.102L471.209 767.79L470.276 767.385L469.247 766.47L468.404 765.489L467.975 764.887H467.45V765.41L472.101 769.805L473.241 771.274L475.452 775.332L475.783 777.313L474.401 778.248L474.954 779.415L475.81 780.769L476.778 781.898L477.594 782.364L478.444 783.109L479.723 786.766L480.774 788.178L480.483 788.71L479.806 790.611L479.682 791.398L480.02 792.617L480.843 793.094L481.804 793.385L482.571 794.04L482.819 796.024L481.514 797.216L479.855 798.213L479.046 799.587L477.885 802.172L477.056 802.574L476.247 802.723L472.55 802.72L467.712 802.173H460.442L456.903 801.655L455.265 801.707L452.438 803.185L450.793 803.388H447.054L432.547 805.074L431.746 804.597L430.667 804.468L429.658 804.803L429.016 805.71L429.927 805.669L430.715 805.752L431.372 805.96L431.917 806.292L430.086 806.772L427.336 806.914L424.848 806.52L423.75 805.391L422.569 805.079L415.049 804.549L415.332 804.193L415.492 803.916L415.726 803.667L416.203 803.387L415.124 803.055L414.128 803.203L413.424 803.148L413.258 802.172L413.549 801.673L414.13 801.292L414.717 800.794L415.048 799.9L414.799 799.481L413.258 797.524L413.506 797.196L413.886 796.362L412.601 794.89L412.89 792.727L414.418 788.753H413.898L412.944 789.46L412.46 789.813L411.838 790.561L411.576 791.399L411.769 792.66L412.031 793.595L412.025 794.447L411.32 795.464L411.3 795.993L412.461 797.385L412.739 798.101L412.461 798.315L411.052 799.9L410.264 800.52L409.29 801.063L408.329 801.159L407.514 800.425H406.934L406.201 802.18L404.357 801.99L401.412 800.425L399.29 800.31L397.078 799.871L395.198 798.981L394.133 797.523L393.615 797.841L393.034 798.022L391.501 798.098L391.231 798.361L391.127 798.956L390.837 799.562L390.029 799.897V800.423L390.588 800.769L391.19 801.057L390.664 801.594L391.757 801.988L393.201 803.145L395.524 803.622L395.939 804.204L395.815 804.958L395.297 805.706L391.502 806.287L391.087 805.837L389.18 803.068L383.81 797.205L383.064 795.461V793.142L382.829 792.339L382.276 792.336L381.073 792.92L379.221 792.937L378.945 792.822L378.241 792.04L376.707 790.787L376.057 789.922L374.662 786.051L373.736 784.743L373.626 785.574L373.197 786.398L372.754 786.974L372.534 787.064L372.768 787.93L373.217 788.078L373.776 788.15L374.315 788.753L375.166 791.691L375.953 792.938L377.508 793.457L380.142 794.789L382.049 797.69L382.36 800.5L380.163 801.594L381.256 802.369L382.547 803.601L383.315 805.082L382.776 806.576L380.433 809.2L378.982 809.844L377.22 809.134L377.179 810.453L377.22 810.878L375.644 810.154L374.482 809.214L373.971 807.955L374.317 806.287L373.183 807.298L372.963 808.721L373.425 810.234L374.317 811.514L372.008 812.096H371.372L370.349 810.113L369.837 807.985L369.616 803.651L368.235 801.332L367.827 799.906L368.78 799.27L369.154 798.571L369.589 796.986L369.823 795.228L369.616 794.041L370.059 794.249L370.847 794.395L371.372 794.57L370.813 793.625L369.106 791.714L368.748 790.78L368.326 788.941L367.947 788.179L366.356 790.364L365.817 790.339L365.472 788.955L364.47 787.064L364.055 788.369L364.262 790.394L363.888 791.08L364.835 792.458L366.729 797.526H365.844L365.25 797.425L364.807 797.093L364.469 796.363L364.13 796.599L363.307 796.945L362.561 795.297L361.656 793.853L359.195 791.08L359.368 792.502L359.784 793.634L360.979 795.726L361.683 796.611L362.002 797.134L362.148 797.809L361.823 798.543L361.236 798.958L360.953 799.457L361.567 800.427L362.417 799.111L363.994 798.702L365.514 799.076L366.205 800.167L365.389 806.022L365.569 808.026L368.575 814.006L369.653 815.366L369.522 816.186L369.024 817.003L368.201 817.37L367.089 817.225L366.175 816.82L364.593 816.096L364.642 816.483L364.76 816.87L365.049 817.369L363.177 816.78L361.311 815.925L359.41 815.499L357.453 816.212L356.485 815.219L355.822 813.87L355.684 812.354L356.292 810.88L354.841 810.128L353.528 807.9L352.601 805.21L352.235 803.068L352.394 801.525L352.816 800.683L353.396 800.084L354.026 799.267L354.414 798.409L354.766 797.038L354.518 795.761L353.108 795.199L350.931 793.957L349.425 791.109L348.126 785.854L347.878 783.76L348.167 782.677L349.045 781.496L349.626 780.464L349.411 779.73L348.638 779.664L347.594 780.624L346.785 779.654L346.516 779.045L346.384 778.248L345.652 778.615L344.947 778.74L344.228 778.615L343.488 778.248L343.862 779.689L344.028 781.226L344.443 782.449L345.521 782.95L346.275 783.591L346.889 785.107L347.594 788.178L347.925 791.359L348.299 792.834L349.045 793.457L350.124 794.027L351.236 795.368L352.819 798.098L350.911 799.729L350.496 800.425L350.331 801.623L352.023 809.988L352.866 812.49L354.027 813.84L353.848 815.812L355.576 817.306L356.669 818.541L354.561 819.693L351.899 820.17L348.5 820.398L345.356 820.118L343.49 819.059L343.234 817.834L343.551 812.813L343.966 812.197L344.07 811.802L343.884 811.355L343.096 810.691L342.909 810.349V807.39L343.22 806.019L345.128 800.931L345.314 800.018L345.232 797.523L343.622 799.503L342.322 803.082L341.749 806.937L342.33 809.769L341.956 810.474L341.915 812.146L341.749 813.257L340.954 811.34L340.692 810.17L340.458 804.95L340.009 803.911L339.684 804.487L339.296 804.978L338.84 805.375L338.267 805.704L338.723 806.908L338.8 810.878L339.139 812.259L340.168 814.107L340.845 815.741L341.702 818.686L341.751 819.693L341.121 820.6L340.257 820.898L337.637 820.857L335.246 821.095L334.748 820.588L333.822 817.84L333.574 815.21L333.684 811.338L333.324 808.227L332.045 806.033L329.467 806.289L331.837 808.161L332.687 811.155L332.376 814.62L331.256 817.9L331.091 820.744L326.868 821.744L321.933 821.273L319.604 819.696L318.465 819.896L317.345 820.225L317.987 821.82L316.597 822.353L314.469 822.487L312.906 822.893L311.276 823.609L307.371 823.716L305.692 824.339L303.68 821.969L305.4 818.355L310.957 812.096L309.851 812.002L309.16 811.84L308.635 811.813L307.958 812.096L305.054 815.577L304.667 810.996L303.312 806.87H302.787L302.69 808.559L302.842 810.719L303.243 812.833L303.893 814.366L303.064 813.538L302.352 812.614L301.391 811.857L299.844 811.514L300.755 813.497L301.682 814.816L302.263 816.228L302.152 818.481L301.599 820.145L300.991 821.388L300.466 821.779L299.761 822.007L299.249 822.506L299.263 823.71L299.94 823.381H300.479L301.627 823.71L301.15 824.513L298.745 825.33L295.594 825.5L293.458 824.921L293.168 825.333L292.615 825.724L292.29 826.082L290.922 825.573L290.162 824.715L289.871 823.517L289.926 821.97L290.279 820.555L291.419 818.534L291.653 817.372L291.265 817.539L290.326 817.76L289.925 817.903L289.939 816.564L290.242 814.266L289.317 814.166L288.433 813.938L287.417 813.523L286.387 813.844L286.131 814.71L286.291 815.963L286.665 817.167L287.023 817.904L286.665 819.023L287.121 819.957L287.812 820.961L288.186 822.29L287.958 824.124L287.294 824.034L286.292 823.154L285.007 822.608L283.127 822.518L282.45 822.068L282.326 819.068L282.837 818.934L282.989 818.684L281.883 817.037L281.745 816.743L281.649 815.307L281.745 813.846H281.233L280.598 816.742L280.162 816.368L278.856 815.584L280.141 818.487L280.403 819.91L279.435 820.864L278.149 820.725L276.842 819.881L275.758 818.94L275.08 818.487L273.36 817.864L271.459 816.297L270.449 814.227L271.319 812.102L270.366 812.025L269.758 812.288L269.502 812.902L269.579 813.846H269.047L267.657 812.42L264.23 810.454L263.201 809.143L263.787 809.516L264.907 810.012L265.516 810.358L264.86 809.286L263.83 808.79L262.641 808.499L261.46 808.033L259.643 806.059L258.993 805.157L256.726 802.831L256.187 802.467L248.309 795.101L245.931 791.802L245.116 788.184L245.476 788.301L245.738 788.416L246.325 788.759L246.317 787.18L242.599 784.889L241.638 783.247L241.223 781.883L239.087 778.205L238.162 777.145L241.057 778.883L240.331 776.854L237.615 773.799L235.258 767.212L234.505 763.236L234.048 761.927L232.963 759.699L232.507 758.411L232.306 756.987L232.036 756.343L231.434 755.691L230.847 754.818L230.564 753.473L230.979 752.44L231.995 752.038L233.322 752.135L234.629 752.57L235.548 753.34L237.082 755.453L238.16 756.11L236.867 752.771L236.363 751.464L238.174 751.642L239.894 752.044L239.272 751.033L236.95 748.483L236.072 747.973L235.753 748.33L235.83 749.889L235.519 750.242L234.718 750.27L234.123 750.363L232.887 750.823L231.767 750.339L229.728 750.692L228.83 750.242L228.664 749.552L228.83 746.473L228.45 742.537L226.674 734.875L227.144 733.75L229.121 733.333L234.753 733.222L236.363 732.754L236.578 733.545L236.806 734.106L237.532 735.136L238.217 734.588L238.859 733.312L239.321 732.754L239.812 732.411L242.763 731.261L244.158 730.997L245.451 731.049L246.322 731.635H246.861L246.219 730.554L244.187 728.779L243.378 727.517L243.067 726.332L242.957 724.935L243.13 723.593L243.67 722.575L244.796 721.846L246.081 721.589L248.914 721.644L249.93 721.159L250.926 720.057L252.128 718.157L250.766 718.718L249.632 719.712L248.416 720.367L246.861 719.899L246.633 720.315L246.093 720.69L245.692 721.117L243.729 720.687L241.698 721.7L240.517 723.586L241.056 725.776L240.081 727.849L238.961 729.117L237.58 729.436L235.782 728.677L235.284 728.099L235.147 727.554L234.814 727.149L233.757 726.99L233.308 727.474L233.542 728.583L234.088 729.761L234.627 730.476L229.714 730.199L220.135 726.99L219.734 726.535L219.346 725.604L219.027 725.143L216.346 722.679L214.598 721.458L213.968 719.634L213.789 717.822L214.018 716.992L214.59 716.677L215.972 715.18L216.705 714.663L217.335 714.551L225.649 714.898L228.801 715.418L230.563 716.417H231.143L231.972 715.21L233.382 712.163L234.045 711.175L235.143 710.703L236.492 710.728L237.783 711.12L238.689 711.758L238.917 712.382L239.393 714.268L239.608 714.663L240.492 714.614L240.927 714.378L241.059 713.858L241.051 712.922L240.423 711.591L238.978 710.134L237.258 708.917L235.779 708.268L234.169 708.303L233.36 709.149L232.303 711.756L231.411 712.556L230.022 713.232L228.48 713.599L227.077 713.501L225.467 712.597L224.776 711.39L224.803 709.934L226.394 705.291L226.587 704.035L226.449 702.444H225.923L223.601 708.793L222.681 710.474L221.583 711.566L220.118 712.16L218.087 712.337L217.167 712.581L215.183 713.742L213.042 714.542L212.524 714.303L211.384 713.503L210.085 712.323L208.75 710.662L207.693 708.897L206.892 706.497L206.09 705.314L205.309 703.792L204.998 701.808L205.205 700.094L205.717 698.167L206.504 696.593L207.548 695.933L208.522 696.267L210.223 697.627L210.858 697.786L211.301 697.241L211.114 696.483L210.782 695.618L210.858 694.775L213.526 692.43L220.492 689.885L222.441 686.628L220.671 686.943L217.768 689.54L214.41 690.556L207.969 693.952L206.739 694.847L202.453 698.86L201.575 698.783L198.402 691.82L188.091 678.405L186.357 676.778L183.019 675.335L181.471 673.586L179.329 670.221L176.365 667.122L173.753 665.007L167.367 660.978L164.554 659.197L159.343 654.31L156.088 652.22L154.726 651.623L147.297 648.353L141.899 647.352L123.543 643.961L101.843 642.145L65.6071 643.961L63.6997 643.649L62.6563 642.888L61.8275 641.94L60.6248 641.043L61.4199 640.63L61.9929 640.491L62.4908 640.623L62.9949 641.043L64.3217 639.832L64.812 640.291L64.9851 641.576L65.316 642.847L68.3021 640.104L68.8 640.17L69.0896 640.848L69.7529 640.88L70.8515 640.464L72.4693 640.425L73.9064 640.168L75.2194 639.474L76.3869 638.131L76.5462 637.204L76.3532 636.255L76.4083 635.515L77.2587 635.216H80.6997L82.5168 634.855L86.2551 633.661L87.395 634.002L89.3024 633.245L91.003 632.233L92.2057 630.869L92.6623 629.045L93.7194 628.625L100.79 627.589L100.14 627.086L99.6088 626.853L99.0909 626.839L98.4689 627.006L93.6382 625.866L88.8627 627.679L84.3078 630.318L80.1819 631.669L78.6329 631.68L77.7551 631.797L74.769 633.395L73.7946 633.742L72.7987 633.939L71.6926 633.999L71.4919 633.797L70.4133 633.414L69.3761 633.469L68.8306 633.04L68.5686 632.772L68.2163 631.667L68.1259 630.623L68.7127 628.793L68.7954 627.587L67.3369 628.438L66.3073 629.331L64.4412 631.377L63.7563 631.637L62.8585 631.672L62.0986 631.86L61.7815 632.568L61.9056 633.17L62.3759 634.424L62.4112 635.216L62.0726 636.127L60.8776 637.961L60.6217 638.986L60.2969 639.59L59.6825 640.058L59.3363 640.578L59.779 641.339L60.1942 641.787L60.4225 642.224L60.5543 642.731L61.0108 643.141L60.5895 645.044L55.6348 645.579L46.1251 645.128L34.9286 646.427L21.797 645.778L2.78228 647.55L2.81752 642.35L3.46865 638.531L3.76588 636.788L4.05391 635.951L5.62737 631.365L5.80356 629.558L5.07429 625.958L5.10033 624.21L6.07474 622.374L7.61142 621.003L8.65631 620.313L9.12972 619.35L8.84935 615.412L8.68235 614.545L8.18136 614.159L7.12881 614.06L6.26011 613.8L5.54004 613.281L4.89043 612.414L4.45992 610.729L4.6882 608.88L5.59213 605.299L5.1708 601.719L4.02173 598.444L3.74136 595.344L5.94451 592.271L6.93577 591.798L8.02355 591.476L8.89225 591.012L9.22624 590.09L8.73445 589.282L6.50525 587.449L5.77598 586.531L5.45117 585.419L5.5385 584.827L5.90774 584.258L6.68911 582.638L7.36475 581.755L7.64512 580.948L7.73246 579.764L5.95064 558.735L6.16054 557.79L6.81013 557.413L7.69722 557.423L9.53113 557.79L9.80384 557.617L9.86513 557.135L10.0674 556.37L10.2956 552.795L8.4173 549.662L5.90621 546.661L4.20406 543.477L3.75669 540.122L3.95432 537.32L4.76633 525.787L4.52886 524.557L3.77354 523.327L1.73739 521.049L0.781369 518.594L0.096527 517.546L0.0520975 517.217L0 516.833L0.193042 516.178L1.06174 514.546L1.3605 513.786L1.6853 508.387L2.75623 502.964L2.94008 497.842L3.16836 496.276L3.82716 494.826L4.71424 493.395L5.3807 491.821L5.42513 489.941L4.846 488.117L3.17909 484.552L2.52029 482.661L2.21234 480.619L2.31805 478.977L2.96766 475.428V474.632L2.75776 473.049L2.77462 472.289L3.22199 471.216L4.91647 469.301L5.59213 468.292L6.25858 465.396L6.06095 462.893L4.40629 441.987L4.39863 441.894L4.42467 440.982L4.90729 440.335L6.33825 439.677L6.79482 439.224L6.90053 438.464L6.46236 437.145L6.35664 436.385L6.67225 435.062L7.73399 432.619L7.76922 431.308L7.44442 430.709L7.0231 430.558L6.66305 430.37L6.51444 429.666L6.72434 429.489L7.68189 428.045L7.95461 427.523L8.42036 425.172L8.60422 419.73L8.33151 417.454L14.8796 417.992L16.0211 417.833L16.8377 417.226L17.5577 416.467L18.4617 415.881L19.3748 415.708L21.9809 415.624L22.9032 415.736L23.8332 416.18L24.6574 416.746L25.5093 417.159L26.5006 417.149L32.3026 415.638L34.3923 414.183L35.6915 411.498L38.5182 402.687L40.2648 399.349L40.7919 397.564L40.8011 391.985L40.5115 390.55L39.4314 387.85L38.8614 385.451L39.1954 383.071L40.8286 380.416L41.443 379.959L42.8127 379.496L43.4439 378.94L48.6224 372.142L48.7189 371.698L48.2715 370.603L48.1658 370.023L48.8062 367.903L50.1759 367.481L51.8352 367.791L53.3366 367.88L56.102 366.327L56.6996 364.074L56.0239 361.458L54.979 358.808L54.6803 357.116L54.8733 355.169L55.6194 353.448L56.9891 352.428L63.0975 349.911L66.4069 349.028L71.5149 349.587L73.0163 348.179L75.2547 344.083L78.0017 340.789L78.8612 339.079L79.3883 331.724L79.9413 330.33L81.2574 329.063L82.4953 328.47L83.5571 327.676L84.3292 325.786L84.3997 325.305L84.6265 323.763L84.3813 322.416L83.6184 321.332L77.8424 315.352L76.6305 313.386L76.5524 311.774L78.2989 307.874L80.4408 304.565L80.7748 303.54L80.8621 301.842L81.0996 301.295L81.6619 300.485L83.3211 298.835L84.988 298.293L86.7791 298.611L92.221 301.468L93.5463 301.263L94.8363 299.647L95.3986 298.052L95.4859 293.6L96.2489 291.301L98.4168 286.994L99.0572 284.681L99.0419 282.032L99.0296 279.942L98.6083 277.432L97.8269 275.764L96.7468 275.14L95.5441 274.912L94.4564 274.58L93.6581 273.624L92.8599 270.792L92.4386 269.867L91.7982 269.126L91.052 268.498L90.3672 267.78L89.9367 266.749L90.0424 265.255L91.8855 260.708L91.982 258.164L90.2355 250.471V250.448L89.3668 248.973L88.7355 247.388L88.3939 245.663V243.792L89.2626 240.435L88.5517 239.747L87.8622 239.71L87.7627 239.706L86.9644 239.851L86.2627 239.733L84.2097 237.775L68.99 216.233L67.726 213.882L67.5774 211.891L69.2795 207.236L69.8142 205.919L70.8239 202.02L76.7224 191.937L78.587 189.965ZM413.58 808.029L416.4 807.739L417.271 808.016L416.794 809.14L416.04 810.157L414.562 810.486L411.32 810.355L410.013 810.577L405.783 812.099L404.305 812.25L398.051 811.869L396.745 811.205L396.247 810.095L397.035 808.562L397.885 808.126L401.991 806.873L402.993 807.229L406.013 808.787L407.513 809.14L409.06 808.97L412.115 808.206L413.58 808.029ZM390.919 807.396L394.783 807.001L395.875 807.396L394.852 808.32L394.326 809.331L394.153 810.48L394.131 811.81L393.773 813.128L392.972 813.959L391.824 814.686L390.621 815.181L383.061 816.742L380.179 816.482L379.356 815.464L380.179 813.858L382.895 810.979L384.803 808.031L386.44 806.142L386.793 805.332L387.125 803.921L388.286 804.633L389.593 806.917L390.919 807.396Z"/>
</mask>
<path d="M78.587 189.965L82.9488 187.348L83.9753 186.301L84.5805 184.43L84.1592 182.715L83.1143 181.126L81.1226 178.986L80.7625 178.772L80.473 178.481L79.9904 177.563L79.7177 176.712L79.2259 171.791L79.6119 170.372L80.5511 169.131L81.9989 167.63L83.4391 164.75L83.0438 161.783L80.928 155.433L80.9724 151.668L83.2629 140.272L82.4203 118.656L82.7711 117.739L101.343 103.739L106.837 98.4612L120.398 77.0764L123.077 58.4131L123.365 56.4122L123.542 35.549L129.036 35.3716L131.59 34.882L133.96 33.7041L147.318 20.8723L151.294 18.033L155.893 16.208L166.008 13.7221L182.908 9.56877L185.629 9.27505L187.578 10.1547L189.492 11.9904L191.422 12.8547L196.356 13.153L204.949 11.5942L217.114 12.1357L220.037 11.5758L221.012 11.1582L223.619 9.28882L224.796 7.89213L226.218 4.68112L227.192 3.38387L229.553 2.18759L242.096 0L244.862 0.599674L268.898 10.1761L292.935 19.7479L293.708 20.1854L294.242 20.6566L294.805 20.9044L295.692 20.6658L300.599 17.9L302.231 17.5573L306.848 18.5639L308.374 18.8974L314.045 22.1757L325.964 33.5343L339.828 48.7785L346.735 61.5216L348.841 65.4072L353.871 71.2219L356.952 74.0933L359.708 76.1509L362.298 77.1468L365.132 77.4573L371.452 77.4252L372.981 77.1697L373.471 77.0871L375.288 76.1907L379.309 72.6355L384.47 66.5286L386.365 66.1645L395.222 67.7952L398.268 67.8136L400.928 66.9523L431.806 48.2584L434.703 46.9658L437.617 46.6782L459.147 49.7515L461.491 50.6541L462.466 51.4037L464.457 53.3143L466.801 54.7722L469.671 57.0363L470.909 57.6253L473.428 58.3075L473.517 58.3504L474.63 58.8797L475.753 59.8679L477.869 62.415L486.348 70.1832L486.971 70.5794L487.823 70.9099L488.148 70.942L488.499 70.6988L489.464 70.2108L490.439 69.8956L492.545 69.6386L493.555 69.6478L495.845 70.1389L497.872 71.1225L501.585 73.9251L503.244 75.7562L505.684 79.8117L507.141 81.5908L510.258 83.3975L532.631 90.0413L535.609 90.3916L560.366 93.2951L563.518 93.2906L568.047 92.0071L569.583 91.903L587.62 94.0248L589.419 93.8902L590.008 93.6424L590.93 93.0335L591.904 92.1861L592.493 91.49L607.072 74.205L609.915 71.4866L611.547 70.4326L612.451 70.1129L612.882 70.1756L613.223 70.1129L613.899 69.4092L614.294 68.5372L614.619 66.4093L614.979 65.5021L616.48 64.0427L632.587 54.9742L636.133 53.4841L677.436 44.5778L679.737 44.0806L687.917 43.4182L703.347 45.231L744.706 45.0107L770.379 51.5444L779.761 55.3826L791.575 62.6384L795.49 65.7499L797.158 66.5852L802.153 67.7983L804.97 67.5597L806.173 67.3531L807.955 66.1232L809.367 65.8325L813.651 67.3485L814.616 67.884L814.941 68.4668L814.976 68.9487L815.125 69.2776L815.801 69.3984L816.116 69.1919L816.493 68.7422L817.02 68.3245L817.828 68.2113L818.67 68.6886L819.301 69.4535L819.925 69.8926L820.732 69.4L822.119 69.8069L825.105 69.9125L827.446 69.9951L829.395 70.3102L831.019 70.8839L832.405 71.1669L833.59 70.5886L833.976 69.5591L834.705 64.9162L835.091 64.5995L837.014 64.2492L837.654 64.0519L838.339 63.2793L838.796 62.3508L839.33 60.4263L837.979 59.9199L838.558 58.6257L839.664 57.0302L839.91 55.6167L843.007 52.6764L843.446 52.372L843.735 52.8738L844.34 52.6749L844.929 52.245L845.491 51.6515L845.658 51.1359L845.764 49.7239L846.668 50.42L847.395 51.1849L848.238 51.7953L849.528 52.0477L850.274 51.5933L850.862 49.5847L851.854 49.1258L853.776 48.6868L855.172 47.5945L857.358 44.9051L857.928 43.461L858.042 43.4213L858.279 43.0725L858.779 43.4534L859.261 44.0531L859.445 44.3682L860.639 44.2688L860.604 43.9307L860.069 43.2836L859.735 42.2571L859.972 41.9435L861.104 41.5381L861.474 41.3362L861.693 41.278L862.43 41.3867L862.684 41.3377L862.745 41.0991L862.623 40.3938L862.684 40.146L865.045 37.4995L866.16 36.5755L865.626 35.8749L865.091 35.3471L864.493 34.9937L863.792 34.7933V34.1447L865.108 34.5118L866.196 35.0396L866.968 34.9677L867.319 33.5465L869.689 34.0789L872.033 33.6276L879.669 29.7817L881.846 28.9801L884.19 28.7843V29.3274L883.724 30.1749L884.68 30.5313L886.278 30.4472L887.674 29.976L887.7 30.282L887.674 31.2213L888.307 30.5971L888.938 29.1392L889.411 28.7828L890.236 28.945L890.419 29.641L890.236 30.5206L889.937 31.2213L892.211 30.1917L894.501 29.7634L896.555 29.0092L898.109 26.9991L896.906 26.8415L896.73 26.4178L897.521 25.2123L897.89 25.0654L898.487 25.1083L899.031 24.9798L899.269 24.2898L899.146 23.7957L898.716 23.1777L898.742 22.8258L899.198 21.9493L899.787 21.1584L903.174 17.9627L904.464 17.0494L904.42 15.5502L905.201 14.9276L907.665 14.5084L907.755 14.4931L928.758 15.3926L948.188 42.6977L967.618 69.9675L972.394 93.1284L977.168 116.265L977.283 122.974L977.411 123.392L977.853 124.824L977.827 126.488L977.318 129.144L977.379 130.158L978.151 131.477L979.274 132.164L980.583 132.442L998.041 132.976L1003.47 134.309L1005.79 135.546L1006.06 136.43L1005.62 137.709L1005.79 138.512L1006.4 139.123L1008.92 141.024L1009.85 141.424V142.069L1009.52 142.199L1008.69 142.661L1010.35 143.862L1012.07 144.777L1013.41 145.894L1013.96 147.696L1014.44 148.095L1015.55 147.7L1016.73 147.082L1017.44 146.808L1018.45 147.347L1018.86 148.171L1019 149.095L1017.36 150.772L1017.15 151.315L1016.73 151.835L1016.22 152.843L1014.75 159.063L1014.94 159.974L1013.43 160.977L1013.59 162.64L1015.2 166.38L1015.35 167.326L1015.36 167.944L1015.05 170.85L1014.08 173.587L1012.27 182.408L1011.64 183.863L1008.52 187.998L1008.12 188.758L1008.25 189.514L1009.02 190.56L1009.36 190.69L1010.81 190.672L1011.44 191.056L1011.79 191.616L1012.09 192.234L1012.54 192.81L1013.92 194.21L1014.87 195.686L1015.36 197.426L1015.4 199.618L1015.08 201.425L1014.43 203.571L1013.55 205.644L1012.53 207.227L1011.07 208.013L1006.68 209.613L1004.9 210.698L1001.78 213.505L1000 214.558L994.972 216.139L993.374 217.037L985.809 224.056L985.142 224.333L982.852 224.61L981.816 225.055L979.481 227.49L977.963 228.606L976.155 229.548L974.268 230.033L972.512 229.774L966.561 227.23L963.217 226.26L960.601 226.27L957.337 228.91L954.142 232.169L951.334 235.757L949.298 239.381L947.841 242.817L946.823 244.159L943.594 246.039L942.224 247.215L941.285 248.699L940.908 250.471L941.47 253.749L940.86 255.114L940.399 256.145L925.271 277.854L922.937 282.823L919.75 293.612L916.853 309.884L914.957 315.237L914.931 316.357L915.51 318.112L915.651 319.11L915.468 320.261L914.116 323.167L913.125 324.454L911.317 325.84L910.53 326.307L909.316 327.026L907.737 327.72L901.075 328.448L898.241 329.54L896.732 332.476L896.758 334.196L897.775 337.01L898.109 338.664L897.758 340.706L895.757 343.867L895.108 345.612L895.249 347.558L896.117 348.937L898.584 351.51L899.514 353.446L899.302 354.825L898.504 356.241L897.678 358.3L896.581 364.1L896.16 369.671L893.782 375.77L888.253 377.979L881.573 379.012L875.693 381.585L874.552 382.489L872.094 385.668L871.155 386.612L870.453 387.095L865.468 389.467L864.906 389.877L864.308 391.438L864.711 391.723L867.126 392.102L867.951 393.842L868.636 396.418L868.557 399.819L868.232 401.405L867.705 402.886L863.781 409.955L862.079 414.044L861.982 417.512L862.597 420.642L860.683 436.819L859.735 440.5L857.901 443.036L856.769 443.52L855.715 443.501L854.634 443.306L853.423 443.257L852.457 443.732L851.843 444.741L851.097 447.165L849.851 449.927L848.342 451.589L839.645 456.189L838.336 456.505L837.081 456.261L834.343 455.001L833.237 454.684L831.693 454.863L830.631 455.417L829.648 456.11L828.304 456.694L827.127 456.806L825.915 456.61L823.579 455.859L824.273 457.1L826.265 461.961L826.502 463.177L826.554 465.552L825.817 466.341L823.263 468.122L822.623 468.997L822.079 470.035L821.403 471.021L820.394 471.744L818.603 471.997L815.338 471.444L813.486 472.217L811.537 474.998L810.878 478.696L811.089 482.595L812.441 489.516L812.361 491.22L812.104 491.951L811.711 493.062L808.244 498.006L807.762 500.086L807.771 503.412L808.237 506.7L808.825 508.802L809.053 510.218L808.571 511.462L805.358 514.829L796.924 526.591L793.869 532.16L793.29 533.916L793.026 535.799L793.167 537.603L794.379 542.62L794.045 544.363L792.983 545.336L791.649 546.264L789.384 549.65L784.067 554.856L779.072 559.743L773.806 567.599L772.086 569.22L770.567 570.365L769.892 571.125L770.383 571.624L772.403 572.008L773.596 573.023L777.819 579.15L781.128 582.763L782.18 584.905L781.408 586.843L780.592 587.178L779.872 586.975L779.109 586.622L778.16 586.533L777.002 586.891L776.028 587.478L772.419 590.76L771.156 591.576L770.91 592.344L770.762 593.166L770.27 593.837L769.691 594.046L768.366 594.099L767.417 594.324L766.549 594.235L766.146 594.341L765.802 594.743L765.495 595.86L765.179 596.305L760.264 599.409L755.041 604.211L753.504 606.379L753.031 608.667L753.584 609.945L755.453 612.059L755.865 613.591L755.646 615.908L755.093 618.179L752.636 623.933L750.626 626.732L748.317 628.025L744.964 628.359L742.726 630.174L741.453 633.061L740.935 636.598L740.4 638.545L738.741 640.095L736.564 641.173L734.467 641.672L733.537 641.619L731.694 641.164L730.764 641.08L730.448 641.265L729.544 642.075L729.035 642.295L728.421 642.206L727.473 641.605L727.016 641.455L724.513 641.718L719.256 642.269L716.973 641.952L715.578 640.663L713.909 636.598L712.478 630.006L712.205 626.674L712.346 623.284L712.083 619.216L710.45 615.785L707.552 613.504L699.636 612.053L696.924 609.334L695.222 605.603L694.441 601.714L693.054 598.306L690.272 596.417L683.293 593.785L677.352 590.628L675.114 589.886L673.577 588.664L673.12 584.46L671.548 582.447L670.32 584.853L669.266 587.957L668.545 591.171L668.044 597.714L667.684 597.997L667.202 598.112L666.667 598.514L665.622 599.918L664.928 601.075L664.577 602.412L664.525 604.332L642.653 604.645L640.309 603.948L638.527 602.557L637.64 600.893L636.421 594.607L635.727 593.221L634.542 592.97L632.551 594.105L611.759 611.76L609.767 612.599L608.117 612.114L606.467 611.305L604.447 611.159L602.859 612.955L596.418 633.395L596.337 633.65L595.275 634.493L592.241 634.511L591.21 634.517L588.691 635.027L587.427 636.09L585.443 639.856L584.1 641.173L582.37 642.039L578.972 643.303L578.463 643.493L575.961 645.056L573.389 650.032L571.019 651.467L569.677 651.547L568.606 651.454L567.605 651.555L566.438 652.195L565.28 653.516L562.857 658.641L560.689 661.682L549.042 671.085L541.204 679.244V679.257L539.387 681.89L538.316 683.037L536.956 683.743L536.499 684.322L536.315 686.75L536.007 687.862L534.506 688.047L532.654 687.38L530.828 687.12L529.38 688.514L528.238 689.963L525.237 691.976L524.333 693.379L524.491 695.107L525.404 696.46L526.15 697.947L525.773 700.087L524.281 701.916L522.779 703.029L522.13 704.252L523.245 706.408L524.957 708.068L526.852 709.536L528.45 711.214L529.318 713.486L528.941 715.542L527.651 717.205L526.053 718.736L524.78 720.393L524.253 722.238L524.376 723.904L524.675 725.55L524.719 727.347L524.157 729.254L522.331 732.856L521.787 734.915L521.883 736.04L522.585 738.097L522.672 739.004L520.399 750.573L519.784 751.671L518.897 752.076L517.897 752.251L516.948 752.682L516.096 753.591L514.446 756.116L513.919 757.253L512.665 760.967L511.874 762.649L510.61 764.417V764.431L507.275 769.709L506.757 771.248L504.439 772.961L503.693 774.264L503.965 776.076L504.22 777.252L504.535 778.473L503.087 779.882L503.008 779.883L503.042 779.866L502.862 779.464L502.289 779.066L501.522 778.883L500.837 779.212L499.945 779.957L499.185 780.829L498.854 781.5L498.689 782.248L497.935 783.882L497.707 784.748L497.776 785.589L498.329 786.818L498.287 787.599L497.541 788.936L496.567 789.348L495.427 789.172L494.162 788.756L493.782 788.86L492.959 788.932L492.378 788.699L492.744 787.888L493.104 787.327L493.506 786.427L493.685 785.589L493.325 785.222L492.565 785.416L490.92 786.241L489.813 786.435L487.298 785.493L487.146 783.152L487.983 780.123L488.376 777.142H487.851L487.284 780.044L485.41 781.54L482.985 781.408L480.774 779.407L481.05 779.082L481.41 778.251L480.747 778.084L479.046 777.142L479.434 775.991L478.735 775.043L476.434 773.311L474.402 772.176L474.306 772.1L473.822 770.694L472.869 768.861L472.26 768.102L471.209 767.79L470.276 767.385L469.247 766.47L468.404 765.489L467.975 764.887H467.45V765.41L472.101 769.805L473.241 771.274L475.452 775.332L475.783 777.313L474.401 778.248L474.954 779.415L475.81 780.769L476.778 781.898L477.594 782.364L478.444 783.109L479.723 786.766L480.774 788.178L480.483 788.71L479.806 790.611L479.682 791.398L480.02 792.617L480.843 793.094L481.804 793.385L482.571 794.04L482.819 796.024L481.514 797.216L479.855 798.213L479.046 799.587L477.885 802.172L477.056 802.574L476.247 802.723L472.55 802.72L467.712 802.173H460.442L456.903 801.655L455.265 801.707L452.438 803.185L450.793 803.388H447.054L432.547 805.074L431.746 804.597L430.667 804.468L429.658 804.803L429.016 805.71L429.927 805.669L430.715 805.752L431.372 805.96L431.917 806.292L430.086 806.772L427.336 806.914L424.848 806.52L423.75 805.391L422.569 805.079L415.049 804.549L415.332 804.193L415.492 803.916L415.726 803.667L416.203 803.387L415.124 803.055L414.128 803.203L413.424 803.148L413.258 802.172L413.549 801.673L414.13 801.292L414.717 800.794L415.048 799.9L414.799 799.481L413.258 797.524L413.506 797.196L413.886 796.362L412.601 794.89L412.89 792.727L414.418 788.753H413.898L412.944 789.46L412.46 789.813L411.838 790.561L411.576 791.399L411.769 792.66L412.031 793.595L412.025 794.447L411.32 795.464L411.3 795.993L412.461 797.385L412.739 798.101L412.461 798.315L411.052 799.9L410.264 800.52L409.29 801.063L408.329 801.159L407.514 800.425H406.934L406.201 802.18L404.357 801.99L401.412 800.425L399.29 800.31L397.078 799.871L395.198 798.981L394.133 797.523L393.615 797.841L393.034 798.022L391.501 798.098L391.231 798.361L391.127 798.956L390.837 799.562L390.029 799.897V800.423L390.588 800.769L391.19 801.057L390.664 801.594L391.757 801.988L393.201 803.145L395.524 803.622L395.939 804.204L395.815 804.958L395.297 805.706L391.502 806.287L391.087 805.837L389.18 803.068L383.81 797.205L383.064 795.461V793.142L382.829 792.339L382.276 792.336L381.073 792.92L379.221 792.937L378.945 792.822L378.241 792.04L376.707 790.787L376.057 789.922L374.662 786.051L373.736 784.743L373.626 785.574L373.197 786.398L372.754 786.974L372.534 787.064L372.768 787.93L373.217 788.078L373.776 788.15L374.315 788.753L375.166 791.691L375.953 792.938L377.508 793.457L380.142 794.789L382.049 797.69L382.36 800.5L380.163 801.594L381.256 802.369L382.547 803.601L383.315 805.082L382.776 806.576L380.433 809.2L378.982 809.844L377.22 809.134L377.179 810.453L377.22 810.878L375.644 810.154L374.482 809.214L373.971 807.955L374.317 806.287L373.183 807.298L372.963 808.721L373.425 810.234L374.317 811.514L372.008 812.096H371.372L370.349 810.113L369.837 807.985L369.616 803.651L368.235 801.332L367.827 799.906L368.78 799.27L369.154 798.571L369.589 796.986L369.823 795.228L369.616 794.041L370.059 794.249L370.847 794.395L371.372 794.57L370.813 793.625L369.106 791.714L368.748 790.78L368.326 788.941L367.947 788.179L366.356 790.364L365.817 790.339L365.472 788.955L364.47 787.064L364.055 788.369L364.262 790.394L363.888 791.08L364.835 792.458L366.729 797.526H365.844L365.25 797.425L364.807 797.093L364.469 796.363L364.13 796.599L363.307 796.945L362.561 795.297L361.656 793.853L359.195 791.08L359.368 792.502L359.784 793.634L360.979 795.726L361.683 796.611L362.002 797.134L362.148 797.809L361.823 798.543L361.236 798.958L360.953 799.457L361.567 800.427L362.417 799.111L363.994 798.702L365.514 799.076L366.205 800.167L365.389 806.022L365.569 808.026L368.575 814.006L369.653 815.366L369.522 816.186L369.024 817.003L368.201 817.37L367.089 817.225L366.175 816.82L364.593 816.096L364.642 816.483L364.76 816.87L365.049 817.369L363.177 816.78L361.311 815.925L359.41 815.499L357.453 816.212L356.485 815.219L355.822 813.87L355.684 812.354L356.292 810.88L354.841 810.128L353.528 807.9L352.601 805.21L352.235 803.068L352.394 801.525L352.816 800.683L353.396 800.084L354.026 799.267L354.414 798.409L354.766 797.038L354.518 795.761L353.108 795.199L350.931 793.957L349.425 791.109L348.126 785.854L347.878 783.76L348.167 782.677L349.045 781.496L349.626 780.464L349.411 779.73L348.638 779.664L347.594 780.624L346.785 779.654L346.516 779.045L346.384 778.248L345.652 778.615L344.947 778.74L344.228 778.615L343.488 778.248L343.862 779.689L344.028 781.226L344.443 782.449L345.521 782.95L346.275 783.591L346.889 785.107L347.594 788.178L347.925 791.359L348.299 792.834L349.045 793.457L350.124 794.027L351.236 795.368L352.819 798.098L350.911 799.729L350.496 800.425L350.331 801.623L352.023 809.988L352.866 812.49L354.027 813.84L353.848 815.812L355.576 817.306L356.669 818.541L354.561 819.693L351.899 820.17L348.5 820.398L345.356 820.118L343.49 819.059L343.234 817.834L343.551 812.813L343.966 812.197L344.07 811.802L343.884 811.355L343.096 810.691L342.909 810.349V807.39L343.22 806.019L345.128 800.931L345.314 800.018L345.232 797.523L343.622 799.503L342.322 803.082L341.749 806.937L342.33 809.769L341.956 810.474L341.915 812.146L341.749 813.257L340.954 811.34L340.692 810.17L340.458 804.95L340.009 803.911L339.684 804.487L339.296 804.978L338.84 805.375L338.267 805.704L338.723 806.908L338.8 810.878L339.139 812.259L340.168 814.107L340.845 815.741L341.702 818.686L341.751 819.693L341.121 820.6L340.257 820.898L337.637 820.857L335.246 821.095L334.748 820.588L333.822 817.84L333.574 815.21L333.684 811.338L333.324 808.227L332.045 806.033L329.467 806.289L331.837 808.161L332.687 811.155L332.376 814.62L331.256 817.9L331.091 820.744L326.868 821.744L321.933 821.273L319.604 819.696L318.465 819.896L317.345 820.225L317.987 821.82L316.597 822.353L314.469 822.487L312.906 822.893L311.276 823.609L307.371 823.716L305.692 824.339L303.68 821.969L305.4 818.355L310.957 812.096L309.851 812.002L309.16 811.84L308.635 811.813L307.958 812.096L305.054 815.577L304.667 810.996L303.312 806.87H302.787L302.69 808.559L302.842 810.719L303.243 812.833L303.893 814.366L303.064 813.538L302.352 812.614L301.391 811.857L299.844 811.514L300.755 813.497L301.682 814.816L302.263 816.228L302.152 818.481L301.599 820.145L300.991 821.388L300.466 821.779L299.761 822.007L299.249 822.506L299.263 823.71L299.94 823.381H300.479L301.627 823.71L301.15 824.513L298.745 825.33L295.594 825.5L293.458 824.921L293.168 825.333L292.615 825.724L292.29 826.082L290.922 825.573L290.162 824.715L289.871 823.517L289.926 821.97L290.279 820.555L291.419 818.534L291.653 817.372L291.265 817.539L290.326 817.76L289.925 817.903L289.939 816.564L290.242 814.266L289.317 814.166L288.433 813.938L287.417 813.523L286.387 813.844L286.131 814.71L286.291 815.963L286.665 817.167L287.023 817.904L286.665 819.023L287.121 819.957L287.812 820.961L288.186 822.29L287.958 824.124L287.294 824.034L286.292 823.154L285.007 822.608L283.127 822.518L282.45 822.068L282.326 819.068L282.837 818.934L282.989 818.684L281.883 817.037L281.745 816.743L281.649 815.307L281.745 813.846H281.233L280.598 816.742L280.162 816.368L278.856 815.584L280.141 818.487L280.403 819.91L279.435 820.864L278.149 820.725L276.842 819.881L275.758 818.94L275.08 818.487L273.36 817.864L271.459 816.297L270.449 814.227L271.319 812.102L270.366 812.025L269.758 812.288L269.502 812.902L269.579 813.846H269.047L267.657 812.42L264.23 810.454L263.201 809.143L263.787 809.516L264.907 810.012L265.516 810.358L264.86 809.286L263.83 808.79L262.641 808.499L261.46 808.033L259.643 806.059L258.993 805.157L256.726 802.831L256.187 802.467L248.309 795.101L245.931 791.802L245.116 788.184L245.476 788.301L245.738 788.416L246.325 788.759L246.317 787.18L242.599 784.889L241.638 783.247L241.223 781.883L239.087 778.205L238.162 777.145L241.057 778.883L240.331 776.854L237.615 773.799L235.258 767.212L234.505 763.236L234.048 761.927L232.963 759.699L232.507 758.411L232.306 756.987L232.036 756.343L231.434 755.691L230.847 754.818L230.564 753.473L230.979 752.44L231.995 752.038L233.322 752.135L234.629 752.57L235.548 753.34L237.082 755.453L238.16 756.11L236.867 752.771L236.363 751.464L238.174 751.642L239.894 752.044L239.272 751.033L236.95 748.483L236.072 747.973L235.753 748.33L235.83 749.889L235.519 750.242L234.718 750.27L234.123 750.363L232.887 750.823L231.767 750.339L229.728 750.692L228.83 750.242L228.664 749.552L228.83 746.473L228.45 742.537L226.674 734.875L227.144 733.75L229.121 733.333L234.753 733.222L236.363 732.754L236.578 733.545L236.806 734.106L237.532 735.136L238.217 734.588L238.859 733.312L239.321 732.754L239.812 732.411L242.763 731.261L244.158 730.997L245.451 731.049L246.322 731.635H246.861L246.219 730.554L244.187 728.779L243.378 727.517L243.067 726.332L242.957 724.935L243.13 723.593L243.67 722.575L244.796 721.846L246.081 721.589L248.914 721.644L249.93 721.159L250.926 720.057L252.128 718.157L250.766 718.718L249.632 719.712L248.416 720.367L246.861 719.899L246.633 720.315L246.093 720.69L245.692 721.117L243.729 720.687L241.698 721.7L240.517 723.586L241.056 725.776L240.081 727.849L238.961 729.117L237.58 729.436L235.782 728.677L235.284 728.099L235.147 727.554L234.814 727.149L233.757 726.99L233.308 727.474L233.542 728.583L234.088 729.761L234.627 730.476L229.714 730.199L220.135 726.99L219.734 726.535L219.346 725.604L219.027 725.143L216.346 722.679L214.598 721.458L213.968 719.634L213.789 717.822L214.018 716.992L214.59 716.677L215.972 715.18L216.705 714.663L217.335 714.551L225.649 714.898L228.801 715.418L230.563 716.417H231.143L231.972 715.21L233.382 712.163L234.045 711.175L235.143 710.703L236.492 710.728L237.783 711.12L238.689 711.758L238.917 712.382L239.393 714.268L239.608 714.663L240.492 714.614L240.927 714.378L241.059 713.858L241.051 712.922L240.423 711.591L238.978 710.134L237.258 708.917L235.779 708.268L234.169 708.303L233.36 709.149L232.303 711.756L231.411 712.556L230.022 713.232L228.48 713.599L227.077 713.501L225.467 712.597L224.776 711.39L224.803 709.934L226.394 705.291L226.587 704.035L226.449 702.444H225.923L223.601 708.793L222.681 710.474L221.583 711.566L220.118 712.16L218.087 712.337L217.167 712.581L215.183 713.742L213.042 714.542L212.524 714.303L211.384 713.503L210.085 712.323L208.75 710.662L207.693 708.897L206.892 706.497L206.09 705.314L205.309 703.792L204.998 701.808L205.205 700.094L205.717 698.167L206.504 696.593L207.548 695.933L208.522 696.267L210.223 697.627L210.858 697.786L211.301 697.241L211.114 696.483L210.782 695.618L210.858 694.775L213.526 692.43L220.492 689.885L222.441 686.628L220.671 686.943L217.768 689.54L214.41 690.556L207.969 693.952L206.739 694.847L202.453 698.86L201.575 698.783L198.402 691.82L188.091 678.405L186.357 676.778L183.019 675.335L181.471 673.586L179.329 670.221L176.365 667.122L173.753 665.007L167.367 660.978L164.554 659.197L159.343 654.31L156.088 652.22L154.726 651.623L147.297 648.353L141.899 647.352L123.543 643.961L101.843 642.145L65.6071 643.961L63.6997 643.649L62.6563 642.888L61.8275 641.94L60.6248 641.043L61.4199 640.63L61.9929 640.491L62.4908 640.623L62.9949 641.043L64.3217 639.832L64.812 640.291L64.9851 641.576L65.316 642.847L68.3021 640.104L68.8 640.17L69.0896 640.848L69.7529 640.88L70.8515 640.464L72.4693 640.425L73.9064 640.168L75.2194 639.474L76.3869 638.131L76.5462 637.204L76.3532 636.255L76.4083 635.515L77.2587 635.216H80.6997L82.5168 634.855L86.2551 633.661L87.395 634.002L89.3024 633.245L91.003 632.233L92.2057 630.869L92.6623 629.045L93.7194 628.625L100.79 627.589L100.14 627.086L99.6088 626.853L99.0909 626.839L98.4689 627.006L93.6382 625.866L88.8627 627.679L84.3078 630.318L80.1819 631.669L78.6329 631.68L77.7551 631.797L74.769 633.395L73.7946 633.742L72.7987 633.939L71.6926 633.999L71.4919 633.797L70.4133 633.414L69.3761 633.469L68.8306 633.04L68.5686 632.772L68.2163 631.667L68.1259 630.623L68.7127 628.793L68.7954 627.587L67.3369 628.438L66.3073 629.331L64.4412 631.377L63.7563 631.637L62.8585 631.672L62.0986 631.86L61.7815 632.568L61.9056 633.17L62.3759 634.424L62.4112 635.216L62.0726 636.127L60.8776 637.961L60.6217 638.986L60.2969 639.59L59.6825 640.058L59.3363 640.578L59.779 641.339L60.1942 641.787L60.4225 642.224L60.5543 642.731L61.0108 643.141L60.5895 645.044L55.6348 645.579L46.1251 645.128L34.9286 646.427L21.797 645.778L2.78228 647.55L2.81752 642.35L3.46865 638.531L3.76588 636.788L4.05391 635.951L5.62737 631.365L5.80356 629.558L5.07429 625.958L5.10033 624.21L6.07474 622.374L7.61142 621.003L8.65631 620.313L9.12972 619.35L8.84935 615.412L8.68235 614.545L8.18136 614.159L7.12881 614.06L6.26011 613.8L5.54004 613.281L4.89043 612.414L4.45992 610.729L4.6882 608.88L5.59213 605.299L5.1708 601.719L4.02173 598.444L3.74136 595.344L5.94451 592.271L6.93577 591.798L8.02355 591.476L8.89225 591.012L9.22624 590.09L8.73445 589.282L6.50525 587.449L5.77598 586.531L5.45117 585.419L5.5385 584.827L5.90774 584.258L6.68911 582.638L7.36475 581.755L7.64512 580.948L7.73246 579.764L5.95064 558.735L6.16054 557.79L6.81013 557.413L7.69722 557.423L9.53113 557.79L9.80384 557.617L9.86513 557.135L10.0674 556.37L10.2956 552.795L8.4173 549.662L5.90621 546.661L4.20406 543.477L3.75669 540.122L3.95432 537.32L4.76633 525.787L4.52886 524.557L3.77354 523.327L1.73739 521.049L0.781369 518.594L0.096527 517.546L0.0520975 517.217L0 516.833L0.193042 516.178L1.06174 514.546L1.3605 513.786L1.6853 508.387L2.75623 502.964L2.94008 497.842L3.16836 496.276L3.82716 494.826L4.71424 493.395L5.3807 491.821L5.42513 489.941L4.846 488.117L3.17909 484.552L2.52029 482.661L2.21234 480.619L2.31805 478.977L2.96766 475.428V474.632L2.75776 473.049L2.77462 472.289L3.22199 471.216L4.91647 469.301L5.59213 468.292L6.25858 465.396L6.06095 462.893L4.40629 441.987L4.39863 441.894L4.42467 440.982L4.90729 440.335L6.33825 439.677L6.79482 439.224L6.90053 438.464L6.46236 437.145L6.35664 436.385L6.67225 435.062L7.73399 432.619L7.76922 431.308L7.44442 430.709L7.0231 430.558L6.66305 430.37L6.51444 429.666L6.72434 429.489L7.68189 428.045L7.95461 427.523L8.42036 425.172L8.60422 419.73L8.33151 417.454L14.8796 417.992L16.0211 417.833L16.8377 417.226L17.5577 416.467L18.4617 415.881L19.3748 415.708L21.9809 415.624L22.9032 415.736L23.8332 416.18L24.6574 416.746L25.5093 417.159L26.5006 417.149L32.3026 415.638L34.3923 414.183L35.6915 411.498L38.5182 402.687L40.2648 399.349L40.7919 397.564L40.8011 391.985L40.5115 390.55L39.4314 387.85L38.8614 385.451L39.1954 383.071L40.8286 380.416L41.443 379.959L42.8127 379.496L43.4439 378.94L48.6224 372.142L48.7189 371.698L48.2715 370.603L48.1658 370.023L48.8062 367.903L50.1759 367.481L51.8352 367.791L53.3366 367.88L56.102 366.327L56.6996 364.074L56.0239 361.458L54.979 358.808L54.6803 357.116L54.8733 355.169L55.6194 353.448L56.9891 352.428L63.0975 349.911L66.4069 349.028L71.5149 349.587L73.0163 348.179L75.2547 344.083L78.0017 340.789L78.8612 339.079L79.3883 331.724L79.9413 330.33L81.2574 329.063L82.4953 328.47L83.5571 327.676L84.3292 325.786L84.3997 325.305L84.6265 323.763L84.3813 322.416L83.6184 321.332L77.8424 315.352L76.6305 313.386L76.5524 311.774L78.2989 307.874L80.4408 304.565L80.7748 303.54L80.8621 301.842L81.0996 301.295L81.6619 300.485L83.3211 298.835L84.988 298.293L86.7791 298.611L92.221 301.468L93.5463 301.263L94.8363 299.647L95.3986 298.052L95.4859 293.6L96.2489 291.301L98.4168 286.994L99.0572 284.681L99.0419 282.032L99.0296 279.942L98.6083 277.432L97.8269 275.764L96.7468 275.14L95.5441 274.912L94.4564 274.58L93.6581 273.624L92.8599 270.792L92.4386 269.867L91.7982 269.126L91.052 268.498L90.3672 267.78L89.9367 266.749L90.0424 265.255L91.8855 260.708L91.982 258.164L90.2355 250.471V250.448L89.3668 248.973L88.7355 247.388L88.3939 245.663V243.792L89.2626 240.435L88.5517 239.747L87.8622 239.71L87.7627 239.706L86.9644 239.851L86.2627 239.733L84.2097 237.775L68.99 216.233L67.726 213.882L67.5774 211.891L69.2795 207.236L69.8142 205.919L70.8239 202.02L76.7224 191.937L78.587 189.965ZM413.58 808.029L416.4 807.739L417.271 808.016L416.794 809.14L416.04 810.157L414.562 810.486L411.32 810.355L410.013 810.577L405.783 812.099L404.305 812.25L398.051 811.869L396.745 811.205L396.247 810.095L397.035 808.562L397.885 808.126L401.991 806.873L402.993 807.229L406.013 808.787L407.513 809.14L409.06 808.97L412.115 808.206L413.58 808.029ZM390.919 807.396L394.783 807.001L395.875 807.396L394.852 808.32L394.326 809.331L394.153 810.48L394.131 811.81L393.773 813.128L392.972 813.959L391.824 814.686L390.621 815.181L383.061 816.742L380.179 816.482L379.356 815.464L380.179 813.858L382.895 810.979L384.803 808.031L386.44 806.142L386.793 805.332L387.125 803.921L388.286 804.633L389.593 806.917L390.919 807.396Z" stroke="#FF4D00" stroke-opacity="0.2" stroke-width="4" mask="url(#path-1-inside-1_1175_584)"/>
<circle cx="178.083" cy="395.728" r="67.2631" stroke="#FF4D00" stroke-opacity="0.2" stroke-width="2"/>
<circle cx="352.207" cy="284.924" r="102.879" stroke="#FF4D00" stroke-opacity="0.2" stroke-width="2"/>
<circle cx="600.511" cy="567.87" r="76.167" stroke="#FF4D00" stroke-opacity="0.2" stroke-width="2"/>
<circle cx="178.073" cy="395.728" r="19.7757" stroke="#FF4D00" stroke-opacity="0.2" stroke-width="2"/>
<circle cx="352.205" cy="284.924" r="19.7757" stroke="#FF4D00" stroke-opacity="0.2" stroke-width="2"/>
<circle cx="600.51" cy="567.87" r="19.7757" stroke="#FF4D00" stroke-opacity="0.2" stroke-width="2"/>
</svg>
