<svg  viewBox="0 0 85 34" fill="none" xmlns="http://www.w3.org/2000/svg">
<path d="M11.6554 25.3004C8.24463 25.3004 5.44371 24.1215 3.25268 21.7637C1.08422 19.3833 0 16.3681 0 12.7182C0 9.04556 1.06164 6.0077 3.18491 3.60462C5.30819 1.20154 8.12039 0 11.6215 0C14.5128 0 16.8281 0.7708 18.5674 2.3124C20.3292 3.83133 21.3457 5.79233 21.6167 8.19541H16.7377C16.5118 6.94853 15.9471 5.96236 15.0436 5.2369C14.1627 4.51144 13.022 4.14871 11.6215 4.14871C9.47568 4.14871 7.83804 4.94218 6.70864 6.52912C5.57924 8.11606 5.01454 10.1791 5.01454 12.7182C5.01454 15.2346 5.61312 17.2863 6.81029 18.8732C8.03004 20.4602 9.64509 21.2537 11.6554 21.2537C13.0785 21.2537 14.2643 20.8683 15.213 20.0975C16.1617 19.304 16.7151 18.2611 16.8733 16.9689H21.6845C21.549 19.2586 20.6567 21.1743 19.0078 22.7159C17.1782 24.4389 14.7274 25.3004 11.6554 25.3004Z" fill="white"/>
<path d="M38.4384 22.6819C36.7443 24.4275 34.5645 25.3004 31.8991 25.3004C29.2338 25.3004 27.054 24.4275 25.3599 22.6819C23.6658 20.9136 22.8188 18.7146 22.8188 16.0848C22.8188 13.455 23.6658 11.2673 25.3599 9.52164C27.054 7.75333 29.2338 6.86918 31.8991 6.86918C34.5645 6.86918 36.7443 7.75333 38.4384 9.52164C40.1325 11.2673 40.9795 13.455 40.9795 16.0848C40.9795 18.7146 40.1325 20.9136 38.4384 22.6819ZM31.8991 21.7637C33.277 21.7637 34.3499 21.2537 35.1179 20.2335C35.9085 19.1906 36.3038 17.8077 36.3038 16.0848C36.3038 14.3618 35.9085 12.9789 35.1179 11.9361C34.3499 10.8932 33.277 10.3718 31.8991 10.3718C30.4987 10.3718 29.4145 10.8932 28.6465 11.9361C27.8785 12.9562 27.4945 14.3391 27.4945 16.0848C27.4945 17.8077 27.8785 19.1906 28.6465 20.2335C29.4145 21.2537 30.4987 21.7637 31.8991 21.7637Z" fill="white"/>
<path d="M53.7266 24.7903C53.5007 24.4955 53.32 23.8494 53.1845 22.8519H53.1167C52.6198 23.6001 51.9873 24.1782 51.2193 24.5862C50.4513 24.9943 49.3784 25.1983 48.0005 25.1983C46.1709 25.1983 44.7027 24.7336 43.5959 23.8041C42.489 22.8746 41.9356 21.5597 41.9356 19.8594C41.9356 18.0911 42.5455 16.7989 43.7653 15.9827C44.985 15.1439 46.7017 14.5658 48.9153 14.2485C50.5417 14.0217 51.6485 13.795 52.2358 13.5683C52.8231 13.319 53.1167 12.8882 53.1167 12.2761C53.1167 11.6413 52.8682 11.1426 52.3713 10.7799C51.8744 10.3945 51.1516 10.2018 50.2029 10.2018C48.1022 10.2018 46.9841 11.0179 46.8485 12.6502H42.7488C42.8166 10.9952 43.4829 9.62366 44.7478 8.53547C46.0128 7.44728 47.8424 6.90319 50.2367 6.90319C55.1157 6.90319 57.5553 9.04556 57.5553 13.3303V22.2058C57.5553 23.5207 57.7585 24.3255 58.1651 24.6202V24.7903H53.7266ZM49.1186 21.9678C50.3836 21.9678 51.3774 21.6391 52.1002 20.9816C52.8457 20.3242 53.2184 19.542 53.2184 18.6352V16.0168C52.7214 16.3115 51.6485 16.6515 49.9996 17.0369C48.6895 17.3316 47.7633 17.6717 47.2212 18.0571C46.6791 18.4198 46.4081 18.9866 46.4081 19.7574C46.4081 21.231 47.3116 21.9678 49.1186 21.9678Z" fill="white"/>
<path d="M64.6522 7.34526V9.72567H64.7539C65.951 7.82134 67.6677 6.86918 69.9039 6.86918C71.6884 6.86918 73.134 7.48129 74.2408 8.7055C75.3477 9.90704 75.901 11.4713 75.901 13.3983V24.7903H71.2931V14.0784C71.2931 13.1263 71.022 12.3555 70.4799 11.766C69.9604 11.1766 69.2263 10.8819 68.2776 10.8819C67.2611 10.8819 66.4141 11.2559 65.7364 12.0041C65.0814 12.7522 64.7539 13.7157 64.7539 14.8946V24.7903H60.1459V7.34526H64.6522Z" fill="white"/>
<path d="M79.3396 0.632709H78.0522V3.95443H77.1822V0.632709H75.9124V0H79.3396V0.632709ZM80.9653 0L82.0462 2.85598L83.1226 0H84.2606V3.95443H83.3819V2.85598L83.4785 0.984214L82.3405 3.95443H81.7474L80.6138 0.988608L80.7016 2.85598V3.95443H79.8361V0H80.9653Z" fill="white"/>
<path d="M2.56425 33.0584C2.14407 33.0584 1.80599 32.9138 1.54999 32.6244C1.29399 32.335 1.16599 31.9621 1.16599 31.5057C1.16599 31.055 1.2926 30.6835 1.54581 30.3913C1.80181 30.0964 2.14686 29.9489 2.58094 29.9489C2.92042 29.9489 3.19451 30.0365 3.4032 30.2118C3.6119 30.3871 3.73712 30.6167 3.77886 30.9005H3.41155C3.37538 30.7113 3.28355 30.5597 3.13607 30.4456C2.99138 30.3315 2.80355 30.2744 2.5726 30.2744C2.2526 30.2744 2.00216 30.3899 1.82129 30.6209C1.64042 30.8491 1.54999 31.144 1.54999 31.5057C1.54999 31.8731 1.6432 32.1694 1.82964 32.3948C2.01886 32.6174 2.2679 32.7287 2.57677 32.7287C2.8439 32.7287 3.04981 32.6508 3.19451 32.495C3.34199 32.3391 3.42547 32.143 3.44494 31.9064H3.81642C3.81364 32.0539 3.77886 32.2056 3.71207 32.3614C3.64807 32.5144 3.5632 32.6424 3.45747 32.7454C3.2432 32.9541 2.94547 33.0584 2.56425 33.0584Z" fill="white"/>
<path d="M5.86575 32.7329C5.67653 32.9499 5.4247 33.0584 5.11027 33.0584C4.79584 33.0584 4.54262 32.9499 4.35062 32.7329C4.1614 32.5158 4.06679 32.2459 4.06679 31.9231C4.06679 31.6004 4.1614 31.3304 4.35062 31.1134C4.54262 30.8964 4.79584 30.7878 5.11027 30.7878C5.4247 30.7878 5.67653 30.8964 5.86575 31.1134C6.05497 31.3304 6.14957 31.6004 6.14957 31.9231C6.14957 32.2459 6.05497 32.5158 5.86575 32.7329ZM4.5927 32.5367C4.71514 32.6953 4.88766 32.7746 5.11027 32.7746C5.33288 32.7746 5.50401 32.6953 5.62366 32.5367C5.74331 32.3753 5.80314 32.1708 5.80314 31.9231C5.80314 31.6727 5.74192 31.4682 5.61949 31.3096C5.49984 31.1482 5.3301 31.0675 5.11027 31.0675C4.88766 31.0675 4.71514 31.1482 4.5927 31.3096C4.47305 31.471 4.41323 31.6755 4.41323 31.9231C4.41323 32.1708 4.47305 32.3753 4.5927 32.5367Z" fill="white"/>
<path d="M6.82484 30.8421V31.1259H6.83318C7.00014 30.9033 7.22831 30.792 7.5177 30.792C7.74588 30.792 7.92397 30.8518 8.05197 30.9715C8.17997 31.0911 8.24397 31.2623 8.24397 31.4849V33H7.90588V31.5141C7.90588 31.375 7.86275 31.2678 7.77649 31.1927C7.69023 31.1148 7.57057 31.0758 7.41753 31.0758C7.24501 31.0758 7.1031 31.1315 6.99179 31.2428C6.88049 31.3541 6.82484 31.4974 6.82484 31.6727V33H6.48675V30.8421H6.82484Z" fill="white"/>
<path d="M9.51 33.0626C9.21504 33.0626 8.98548 32.9972 8.8213 32.8664C8.65991 32.7329 8.57087 32.5437 8.55417 32.2988H8.90061C8.93956 32.6188 9.14548 32.7788 9.51835 32.7788C9.68808 32.7788 9.8133 32.7468 9.894 32.6828C9.97748 32.616 10.0192 32.5298 10.0192 32.424C10.0192 32.3099 9.97887 32.2278 9.89817 32.1777C9.81748 32.1277 9.67 32.0804 9.45574 32.0358C9.36669 32.0164 9.29574 32.0011 9.24287 31.9899C9.19278 31.976 9.13156 31.9579 9.05922 31.9357C8.98687 31.9106 8.92982 31.8842 8.88808 31.8564C8.84913 31.8257 8.80878 31.7896 8.76704 31.7478C8.7253 31.7061 8.69469 31.6546 8.67522 31.5934C8.65852 31.5322 8.65017 31.464 8.65017 31.3889C8.65017 31.2052 8.71695 31.0605 8.85052 30.9548C8.98687 30.8491 9.17887 30.7962 9.42652 30.7962C9.93852 30.7962 10.221 31.0216 10.2738 31.4724H9.92739C9.91069 31.3304 9.862 31.2275 9.7813 31.1635C9.70061 31.0967 9.57956 31.0633 9.41817 31.0633C9.27069 31.0633 9.16078 31.0925 9.08843 31.151C9.01887 31.2066 8.98409 31.2804 8.98409 31.3722C8.98409 31.4779 9.02582 31.5531 9.1093 31.5976C9.19278 31.6393 9.34443 31.6824 9.56426 31.727C9.69782 31.7548 9.80217 31.7812 9.8773 31.8063C9.95522 31.8285 10.0359 31.8647 10.1194 31.9148C10.2029 31.9621 10.2641 32.0261 10.303 32.1068C10.342 32.1875 10.3615 32.2877 10.3615 32.4073C10.3615 32.6188 10.2836 32.7816 10.1277 32.8957C9.97191 33.007 9.766 33.0626 9.51 33.0626Z" fill="white"/>
<path d="M10.5066 31.1176V30.8421H10.8197V30.1617H11.1577V30.8421H11.5751V31.1176H11.1577V32.52C11.1577 32.6536 11.2301 32.7204 11.3748 32.7204C11.436 32.7204 11.4958 32.7106 11.5543 32.6911H11.5668V32.9833C11.475 33.0028 11.3845 33.0125 11.2955 33.0125C10.9783 33.0125 10.8197 32.8734 10.8197 32.5951V31.1176H10.5066Z" fill="white"/>
<path d="M12.2623 30.8421V31.2011H12.2707C12.3402 31.087 12.4307 30.9951 12.542 30.9256C12.6533 30.8532 12.7771 30.8171 12.9135 30.8171C12.9636 30.8171 13.0095 30.8254 13.0512 30.8421V31.1677H13.0387C12.9969 31.1537 12.9469 31.1468 12.8884 31.1468C12.7159 31.1468 12.5684 31.208 12.446 31.3304C12.3236 31.4501 12.2623 31.6073 12.2623 31.8021V33H11.9242V30.8421H12.2623Z" fill="white"/>
<path d="M15.0663 33H14.7282V32.7037H14.7198C14.5501 32.9346 14.333 33.0501 14.0687 33.0501C13.8461 33.0501 13.6694 32.9875 13.5386 32.8623C13.4078 32.7343 13.3424 32.559 13.3424 32.3364V30.8421H13.6805V32.328C13.6805 32.4671 13.7223 32.5757 13.8057 32.6536C13.892 32.7315 14.0116 32.7704 14.1647 32.7704C14.3344 32.7704 14.4708 32.7134 14.5737 32.5993C14.6767 32.4852 14.7282 32.3419 14.7282 32.1694V30.8421H15.0663V33Z" fill="white"/>
<path d="M16.4459 33.0584C16.1314 33.0584 15.8782 32.9499 15.6862 32.7329C15.497 32.5158 15.4024 32.2459 15.4024 31.9231C15.4024 31.6004 15.497 31.3304 15.6862 31.1134C15.8782 30.8964 16.1314 30.7878 16.4459 30.7878C16.6991 30.7878 16.9064 30.856 17.0678 30.9924C17.2292 31.1259 17.3293 31.3082 17.3683 31.5391H17.026C17.001 31.3917 16.9384 31.2762 16.8382 31.1927C16.738 31.1092 16.6073 31.0675 16.4459 31.0675C16.2233 31.0675 16.0507 31.1482 15.9283 31.3096C15.8087 31.471 15.7488 31.6755 15.7488 31.9231C15.7488 32.1708 15.8087 32.3753 15.9283 32.5367C16.0507 32.6953 16.2233 32.7746 16.4459 32.7746C16.6184 32.7746 16.7561 32.7287 16.8591 32.6369C16.962 32.5423 17.0205 32.4101 17.0344 32.2404H17.3683C17.346 32.4991 17.2542 32.7009 17.0928 32.8456C16.9314 32.9875 16.7158 33.0584 16.4459 33.0584Z" fill="white"/>
<path d="M17.5501 31.1176V30.8421H17.8631V30.1617H18.2012V30.8421H18.6186V31.1176H18.2012V32.52C18.2012 32.6536 18.2736 32.7204 18.4183 32.7204C18.4795 32.7204 18.5393 32.7106 18.5977 32.6911H18.6103V32.9833C18.5184 33.0028 18.428 33.0125 18.339 33.0125C18.0217 33.0125 17.8631 32.8734 17.8631 32.5951V31.1176H17.5501Z" fill="white"/>
<path d="M18.9677 33V30.8421H19.3058V33H18.9677ZM18.9677 30.4331V30.0157H19.3058V30.4331H18.9677Z" fill="white"/>
<path d="M21.4446 32.7329C21.2553 32.9499 21.0035 33.0584 20.6891 33.0584C20.3746 33.0584 20.1214 32.9499 19.9294 32.7329C19.7402 32.5158 19.6456 32.2459 19.6456 31.9231C19.6456 31.6004 19.7402 31.3304 19.9294 31.1134C20.1214 30.8964 20.3746 30.7878 20.6891 30.7878C21.0035 30.7878 21.2553 30.8964 21.4446 31.1134C21.6338 31.3304 21.7284 31.6004 21.7284 31.9231C21.7284 32.2459 21.6338 32.5158 21.4446 32.7329ZM20.1715 32.5367C20.2939 32.6953 20.4665 32.7746 20.6891 32.7746C20.9117 32.7746 21.0828 32.6953 21.2025 32.5367C21.3221 32.3753 21.3819 32.1708 21.3819 31.9231C21.3819 31.6727 21.3207 31.4682 21.1983 31.3096C21.0786 31.1482 20.9089 31.0675 20.6891 31.0675C20.4665 31.0675 20.2939 31.1482 20.1715 31.3096C20.0519 31.471 19.992 31.6755 19.992 31.9231C19.992 32.1708 20.0519 32.3753 20.1715 32.5367Z" fill="white"/>
<path d="M22.4036 30.8421V31.1259H22.412C22.5789 30.9033 22.8071 30.792 23.0965 30.792C23.3247 30.792 23.5028 30.8518 23.6308 30.9715C23.7588 31.0911 23.8228 31.2623 23.8228 31.4849V33H23.4847V31.5141C23.4847 31.375 23.4416 31.2678 23.3553 31.1927C23.269 31.1148 23.1494 31.0758 22.9963 31.0758C22.8238 31.0758 22.6819 31.1315 22.5706 31.2428C22.4593 31.3541 22.4036 31.4974 22.4036 31.6727V33H22.0656V30.8421H22.4036Z" fill="white"/>
<path d="M25.5362 33L24.764 30.0157H25.1563L25.628 31.9565L25.7407 32.4616H25.749C25.7963 32.2501 25.8381 32.079 25.8742 31.9482L26.4127 30.0157H26.8176L27.3393 31.9482L27.4603 32.4616H27.4687C27.516 32.2473 27.5549 32.079 27.5856 31.9565L28.0822 30.0157H28.4621L27.6315 33H27.2725L26.7257 30.8964L26.6172 30.4414H26.6089C26.5671 30.6278 26.5296 30.7795 26.4962 30.8964L25.9118 33H25.5362Z" fill="white"/>
<path d="M29.4649 33.0584C29.1449 33.0584 28.8903 32.9513 28.7011 32.7371C28.5146 32.52 28.4214 32.2487 28.4214 31.9231C28.4214 31.6031 28.516 31.3346 28.7052 31.1176C28.8972 30.8977 29.1435 30.7878 29.444 30.7878C29.7612 30.7878 30.0061 30.8991 30.1786 31.1217C30.3511 31.3416 30.4374 31.6351 30.4374 32.0024H28.7678C28.7818 32.2306 28.8485 32.4171 28.9682 32.5617C29.0906 32.7037 29.2562 32.7746 29.4649 32.7746C29.7877 32.7746 29.9866 32.6271 30.0618 32.3322H30.3915C30.3414 32.5631 30.2357 32.7426 30.0743 32.8706C29.9129 32.9958 29.7098 33.0584 29.4649 33.0584ZM29.8948 31.2386C29.7863 31.1162 29.636 31.055 29.444 31.055C29.252 31.055 29.099 31.119 28.9849 31.247C28.8736 31.375 28.804 31.5419 28.7762 31.7478H30.0743C30.0631 31.5308 30.0033 31.3611 29.8948 31.2386Z" fill="white"/>
<path d="M31.5861 33.0626C31.2911 33.0626 31.0616 32.9972 30.8974 32.8664C30.736 32.7329 30.647 32.5437 30.6303 32.2988H30.9767C31.0157 32.6188 31.2216 32.7788 31.5944 32.7788C31.7642 32.7788 31.8894 32.7468 31.9701 32.6828C32.0536 32.616 32.0953 32.5298 32.0953 32.424C32.0953 32.3099 32.055 32.2278 31.9743 32.1777C31.8936 32.1277 31.7461 32.0804 31.5318 32.0358C31.4428 32.0164 31.3718 32.0011 31.319 31.9899C31.2689 31.976 31.2076 31.9579 31.1353 31.9357C31.063 31.9106 31.0059 31.8842 30.9642 31.8564C30.9252 31.8257 30.8849 31.7896 30.8431 31.7478C30.8014 31.7061 30.7708 31.6546 30.7513 31.5934C30.7346 31.5322 30.7263 31.464 30.7263 31.3889C30.7263 31.2052 30.793 31.0605 30.9266 30.9548C31.063 30.8491 31.255 30.7962 31.5026 30.7962C32.0146 30.7962 32.297 31.0216 32.3499 31.4724H32.0035C31.9868 31.3304 31.9381 31.2275 31.8574 31.1635C31.7767 31.0967 31.6557 31.0633 31.4943 31.0633C31.3468 31.0633 31.2369 31.0925 31.1645 31.151C31.095 31.2066 31.0602 31.2804 31.0602 31.3722C31.0602 31.4779 31.1019 31.5531 31.1854 31.5976C31.2689 31.6393 31.4205 31.6824 31.6403 31.727C31.7739 31.7548 31.8783 31.7812 31.9534 31.8063C32.0313 31.8285 32.112 31.8647 32.1955 31.9148C32.279 31.9621 32.3402 32.0261 32.3791 32.1068C32.4181 32.1875 32.4376 32.2877 32.4376 32.4073C32.4376 32.6188 32.3596 32.7816 32.2038 32.8957C32.048 33.007 31.8421 33.0626 31.5861 33.0626Z" fill="white"/>
<path d="M32.5827 31.1176V30.8421H32.8957V30.1617H33.2338V30.8421H33.6512V31.1176H33.2338V32.52C33.2338 32.6536 33.3062 32.7204 33.4509 32.7204C33.5121 32.7204 33.5719 32.7106 33.6304 32.6911H33.6429V32.9833C33.5511 33.0028 33.4606 33.0125 33.3716 33.0125C33.0544 33.0125 32.8957 32.8734 32.8957 32.5951V31.1176H32.5827Z" fill="white"/>
<path d="M34.4769 33L35.5747 30.0157H35.9962L37.0981 33H36.6891L36.3719 32.0901H35.1823L34.8609 33H34.4769ZM35.6456 30.7837L35.2908 31.7854H36.2675L35.9253 30.7837L35.7917 30.3621H35.7833C35.7305 30.5291 35.6846 30.6696 35.6456 30.7837Z" fill="white"/>
<path d="M37.1724 31.1176V30.8421H37.4687V30.4957C37.4687 30.3176 37.5174 30.1896 37.6148 30.1117C37.7122 30.031 37.8541 29.9906 38.0406 29.9906C38.0934 29.9906 38.1505 29.9934 38.2117 29.999V30.287C38.1727 30.2842 38.1366 30.2828 38.1032 30.2828C37.9946 30.2828 37.9181 30.2995 37.8736 30.3329C37.8291 30.3663 37.8068 30.4261 37.8068 30.5124V30.8421H38.2075V31.1176H37.8068V33H37.4687V31.1176H37.1724Z" fill="white"/>
<path d="M38.8751 30.8421V31.2011H38.8835C38.953 31.087 39.0435 30.9951 39.1548 30.9256C39.2661 30.8532 39.3899 30.8171 39.5262 30.8171C39.5763 30.8171 39.6222 30.8254 39.664 30.8421V31.1677H39.6515C39.6097 31.1537 39.5596 31.1468 39.5012 31.1468C39.3287 31.1468 39.1812 31.208 39.0588 31.3304C38.9363 31.4501 38.8751 31.6073 38.8751 31.8021V33H38.537V30.8421H38.8751Z" fill="white"/>
<path d="M39.9677 33V30.8421H40.3058V33H39.9677ZM39.9677 30.4331V30.0157H40.3058V30.4331H39.9677Z" fill="white"/>
<path d="M41.6891 33.0584C41.3746 33.0584 41.1214 32.9499 40.9294 32.7329C40.7402 32.5158 40.6456 32.2459 40.6456 31.9231C40.6456 31.6004 40.7402 31.3304 40.9294 31.1134C41.1214 30.8964 41.3746 30.7878 41.6891 30.7878C41.9423 30.7878 42.1496 30.856 42.311 30.9924C42.4724 31.1259 42.5726 31.3082 42.6115 31.5391H42.2692C42.2442 31.3917 42.1816 31.2762 42.0814 31.1927C41.9813 31.1092 41.8505 31.0675 41.6891 31.0675C41.4665 31.0675 41.2939 31.1482 41.1715 31.3096C41.0519 31.471 40.992 31.6755 40.992 31.9231C40.992 32.1708 41.0519 32.3753 41.1715 32.5367C41.2939 32.6953 41.4665 32.7746 41.6891 32.7746C41.8616 32.7746 41.9993 32.7287 42.1023 32.6369C42.2053 32.5423 42.2637 32.4101 42.2776 32.2404H42.6115C42.5893 32.4991 42.4974 32.7009 42.336 32.8456C42.1746 32.9875 41.959 33.0584 41.6891 33.0584Z" fill="white"/>
<path d="M44.6664 33.0209C44.4522 33.0209 44.3283 32.9138 44.2949 32.6995H44.2908C44.1127 32.9277 43.8734 33.0417 43.5728 33.0417C43.3586 33.0417 43.1833 32.9903 43.0469 32.8873C42.9106 32.7844 42.8424 32.6355 42.8424 32.4407C42.8424 32.3405 42.8577 32.2543 42.8883 32.1819C42.9217 32.1068 42.9635 32.047 43.0135 32.0024C43.0636 31.9551 43.1318 31.9148 43.2181 31.8814C43.3071 31.8452 43.392 31.8188 43.4727 31.8021C43.5534 31.7826 43.6563 31.7631 43.7815 31.7437C43.8622 31.7325 43.9193 31.7242 43.9527 31.7186C43.9888 31.7103 44.0348 31.6991 44.0904 31.6852C44.1461 31.6685 44.185 31.6504 44.2073 31.631C44.2295 31.6115 44.2504 31.5851 44.2699 31.5517C44.2894 31.5183 44.2991 31.4793 44.2991 31.4348C44.2991 31.3124 44.256 31.2191 44.1697 31.1551C44.0862 31.0884 43.968 31.055 43.8149 31.055C43.4671 31.055 43.2876 31.2136 43.2765 31.5308H42.9509C42.9565 31.311 43.0316 31.1343 43.1763 31.0007C43.3238 30.8671 43.5353 30.8004 43.8108 30.8004C44.3422 30.8004 44.608 31.0285 44.608 31.4849V32.5117C44.608 32.6063 44.6233 32.6731 44.6539 32.712C44.6873 32.751 44.7485 32.7607 44.8375 32.7412H44.8501V32.9875C44.7944 33.0097 44.7332 33.0209 44.6664 33.0209ZM43.648 32.783C43.8567 32.783 44.0181 32.7231 44.1322 32.6035C44.2462 32.4811 44.3033 32.3475 44.3033 32.2028V31.8355C44.2003 31.8995 44.0362 31.9524 43.8108 31.9941C43.7273 32.0108 43.6619 32.0247 43.6146 32.0358C43.5673 32.0442 43.513 32.0609 43.4518 32.0859C43.3906 32.1082 43.3447 32.1332 43.3141 32.1611C43.2835 32.1889 43.257 32.2264 43.2348 32.2738C43.2125 32.3183 43.2014 32.3711 43.2014 32.4324C43.2014 32.6661 43.3502 32.783 43.648 32.783Z" fill="white"/>
</svg>
