<svg width="85" height="26" viewBox="0 0 85 26" fill="none" xmlns="http://www.w3.org/2000/svg">
<path d="M11.6554 25.3003C8.24463 25.3003 5.44371 24.1215 3.25268 21.7637C1.08422 19.3833 0 16.3681 0 12.7182C0 9.04556 1.06164 6.0077 3.18491 3.60462C5.30819 1.20154 8.12039 0 11.6215 0C14.5128 0 16.8281 0.7708 18.5674 2.3124C20.3292 3.83133 21.3457 5.79233 21.6167 8.19541H16.7377C16.5118 6.94853 15.9471 5.96236 15.0436 5.2369C14.1627 4.51144 13.022 4.14871 11.6215 4.14871C9.47568 4.14871 7.83804 4.94218 6.70864 6.52912C5.57924 8.11606 5.01454 10.1791 5.01454 12.7182C5.01454 15.2346 5.61312 17.2863 6.81029 18.8732C8.03004 20.4602 9.64509 21.2537 11.6554 21.2537C13.0785 21.2537 14.2643 20.8683 15.213 20.0975C16.1617 19.304 16.7151 18.2611 16.8733 16.9689H21.6845C21.549 19.2586 20.6567 21.1743 19.0078 22.7159C17.1782 24.4389 14.7274 25.3003 11.6554 25.3003Z" fill="white"/>
<path d="M38.4384 22.6819C36.7443 24.4275 34.5645 25.3003 31.8991 25.3003C29.2338 25.3003 27.054 24.4275 25.3599 22.6819C23.6658 20.9136 22.8188 18.7146 22.8188 16.0848C22.8188 13.455 23.6658 11.2673 25.3599 9.52164C27.054 7.75333 29.2338 6.86918 31.8991 6.86918C34.5645 6.86918 36.7443 7.75333 38.4384 9.52164C40.1325 11.2673 40.9795 13.455 40.9795 16.0848C40.9795 18.7146 40.1325 20.9136 38.4384 22.6819ZM31.8991 21.7637C33.277 21.7637 34.3499 21.2537 35.1179 20.2335C35.9085 19.1906 36.3038 17.8077 36.3038 16.0848C36.3038 14.3618 35.9085 12.9789 35.1179 11.9361C34.3499 10.8932 33.277 10.3718 31.8991 10.3718C30.4987 10.3718 29.4145 10.8932 28.6465 11.9361C27.8785 12.9562 27.4945 14.3391 27.4945 16.0848C27.4945 17.8077 27.8785 19.1906 28.6465 20.2335C29.4145 21.2537 30.4987 21.7637 31.8991 21.7637Z" fill="white"/>
<path d="M53.7266 24.7903C53.5007 24.4955 53.32 23.8494 53.1845 22.8519H53.1167C52.6198 23.6001 51.9873 24.1782 51.2193 24.5862C50.4513 24.9943 49.3784 25.1983 48.0005 25.1983C46.1709 25.1983 44.7027 24.7336 43.5959 23.8041C42.489 22.8746 41.9356 21.5597 41.9356 19.8594C41.9356 18.0911 42.5455 16.7989 43.7653 15.9827C44.985 15.1439 46.7017 14.5658 48.9153 14.2485C50.5417 14.0217 51.6485 13.795 52.2358 13.5683C52.8231 13.319 53.1167 12.8882 53.1167 12.2761C53.1167 11.6413 52.8682 11.1426 52.3713 10.7799C51.8744 10.3945 51.1515 10.2018 50.2029 10.2018C48.1022 10.2018 46.9841 11.0179 46.8485 12.6502H42.7488C42.8166 10.9952 43.4829 9.62366 44.7478 8.53547C46.0128 7.44728 47.8424 6.90319 50.2367 6.90319C55.1157 6.90319 57.5553 9.04556 57.5553 13.3303V22.2058C57.5553 23.5207 57.7585 24.3255 58.1651 24.6202V24.7903H53.7266ZM49.1186 21.9678C50.3836 21.9678 51.3774 21.6391 52.1002 20.9816C52.8457 20.3242 53.2184 19.542 53.2184 18.6352V16.0168C52.7214 16.3115 51.6485 16.6515 49.9996 17.0369C48.6895 17.3316 47.7633 17.6717 47.2212 18.0571C46.6791 18.4198 46.4081 18.9866 46.4081 19.7574C46.4081 21.231 47.3116 21.9678 49.1186 21.9678Z" fill="white"/>
<path d="M64.6522 7.34526V9.72567H64.7539C65.951 7.82134 67.6677 6.86918 69.9039 6.86918C71.6884 6.86918 73.134 7.48129 74.2408 8.7055C75.3476 9.90704 75.901 11.4713 75.901 13.3983V24.7903H71.2931V14.0784C71.2931 13.1263 71.022 12.3555 70.4799 11.766C69.9604 11.1766 69.2263 10.8819 68.2776 10.8819C67.2611 10.8819 66.4141 11.2559 65.7364 12.0041C65.0814 12.7522 64.7539 13.7157 64.7539 14.8946V24.7903H60.1459V7.34526H64.6522Z" fill="white"/>
<path d="M79.3412 0.632709H78.0538V3.95443H77.1839V0.632709H75.9141V0H79.3412V0.632709ZM80.9669 0L82.0478 2.85598L83.1243 0H84.2623V3.95443H83.3835V2.85598L83.4802 0.984214L82.3422 3.95443H81.749L80.6154 0.988608L80.7033 2.85598V3.95443H79.8377V0H80.9669Z" fill="white"/>
</svg>

